<svg xmlns="http://www.w3.org/2000/svg" viewBox="0 0 1296.0 452.0" fill="#EDE5D8">
<g transform="translate(0.000000,452.000000) scale(0.100000,-0.100000)"
fill="#EDE5D8" stroke="none">
<path d="M445 4480 c-55 -9 -143 -44 -190 -75 -55 -36 -165 -158 -165 -183 0
-4 -9 -25 -21 -46 -11 -21 -25 -66 -30 -100 -6 -33 -17 -68 -25 -77 -22 -24
-21 -902 1 -947 9 -17 20 -55 25 -85 5 -30 18 -72 29 -93 12 -21 21 -43 21
-47 0 -27 151 -187 176 -187 4 0 15 -6 23 -14 9 -8 32 -19 51 -24 19 -6 53
-18 75 -26 30 -11 82 -15 201 -16 149 0 167 2 228 25 76 29 126 58 178 106 38
35 97 116 98 133 0 5 6 17 13 25 19 22 65 166 72 226 4 28 11 63 17 78 9 23 8
31 -3 38 -24 15 -335 11 -347 -4 -7 -7 -17 -38 -23 -68 -33 -157 -138 -233
-286 -208 -55 10 -68 17 -111 60 -79 78 -82 102 -82 556 0 332 2 386 18 441
23 82 82 145 156 167 64 19 90 19 146 -2 84 -30 138 -104 160 -216 8 -37 18
-60 30 -67 28 -15 312 -13 332 3 15 11 16 19 1 92 -19 99 -61 235 -79 256 -8
8 -14 20 -14 26 0 19 -87 122 -136 162 -27 21 -78 51 -114 66 -60 25 -77 28
-220 31 -85 1 -177 -1 -205 -6z"/>
<path d="M10675 4480 c-84 -13 -187 -68 -266 -142 -37 -34 -89 -101 -89 -114
0 -4 -6 -15 -14 -23 -7 -9 -25 -54 -40 -101 l-27 -85 3 -525 c3 -488 4 -528
22 -565 49 -105 74 -148 111 -188 40 -43 107 -97 121 -97 4 0 15 -6 23 -14 9
-7 51 -25 94 -40 71 -24 90 -26 240 -26 150 0 167 2 237 27 41 14 82 32 91 40
8 7 20 13 26 13 13 0 133 117 159 155 35 52 63 118 85 200 18 68 22 117 26
336 4 184 2 262 -6 277 -12 22 -15 22 -295 22 -250 0 -285 -2 -290 -16 -3 -9
-6 -85 -6 -169 0 -130 2 -154 16 -159 9 -3 57 -6 108 -6 58 0 96 -4 104 -12
21 -21 15 -132 -11 -196 -27 -65 -54 -97 -112 -132 -34 -21 -52 -25 -130 -25
-83 0 -94 3 -140 31 -28 17 -65 50 -82 73 l-33 43 0 449 0 450 26 44 c41 70
93 111 160 125 138 29 257 -43 293 -176 l7 -29 174 -3 c95 -1 177 1 182 6 10
10 -8 150 -21 166 -5 6 -15 32 -21 58 -7 26 -18 53 -26 59 -8 6 -14 16 -14 21
0 13 -82 113 -118 143 -54 46 -164 95 -232 105 -76 11 -263 11 -335 0z"/>
<path d="M1941 4471 c-13 -8 -61 -138 -61 -165 0 -6 -6 -22 -13 -36 -8 -14
-19 -48 -26 -75 -7 -27 -16 -54 -20 -60 -5 -5 -14 -32 -20 -60 -7 -27 -16 -54
-20 -60 -5 -5 -14 -32 -20 -60 -7 -27 -16 -54 -20 -60 -5 -5 -14 -32 -20 -60
-7 -27 -16 -54 -20 -60 -5 -5 -14 -32 -20 -60 -7 -27 -16 -54 -20 -60 -5 -5
-14 -32 -20 -60 -7 -27 -16 -54 -20 -60 -5 -5 -14 -32 -20 -60 -7 -27 -16 -54
-20 -60 -5 -5 -14 -32 -20 -60 -7 -27 -16 -54 -21 -60 -4 -5 -11 -26 -15 -45
-4 -19 -13 -48 -20 -65 -19 -43 -65 -197 -65 -215 0 -9 -6 -25 -14 -36 -8 -11
-17 -38 -21 -60 -4 -21 -13 -48 -20 -60 -8 -12 -17 -39 -21 -60 -4 -21 -16
-56 -26 -76 -11 -21 -18 -51 -16 -70 l3 -33 166 -3 c125 -2 169 1 176 10 14
18 53 134 54 161 0 12 12 47 27 77 l27 55 266 3 c305 3 299 4 323 -83 45 -158
55 -188 71 -205 17 -18 32 -20 181 -20 92 0 165 4 169 9 6 10 -11 63 -364
1126 -121 363 -222 677 -226 698 -12 62 -41 77 -149 77 -50 0 -97 -4 -105 -9z
m146 -739 c16 -63 47 -172 74 -257 29 -96 60 -205 66 -237 5 -24 2 -27 -28
-33 -19 -3 -97 -5 -174 -3 l-140 3 -3 38 c-2 21 6 65 17 97 12 33 21 67 21 76
0 9 6 30 14 47 14 30 26 72 60 202 7 28 23 70 35 94 27 51 39 45 58 -27z"/>
<path d="M3048 4473 c-10 -2 -18 -10 -18 -16 0 -7 0 -428 0 -936 0 -663 3
-928 11 -938 18 -21 272 -19 293 3 14 14 16 77 16 544 0 291 3 535 6 544 10
25 33 19 40 -11 3 -16 23 -82 44 -148 21 -66 41 -136 45 -155 4 -19 12 -40 17
-47 5 -7 16 -36 23 -65 15 -57 47 -164 64 -213 6 -16 23 -68 39 -115 l28 -85
127 -3 127 -3 19 43 c11 24 31 84 46 133 14 50 30 104 36 120 6 17 17 53 24
80 8 28 35 115 60 195 26 80 53 168 60 195 6 28 20 65 29 82 9 18 16 38 16 45
0 7 5 20 10 28 26 40 30 -31 30 -582 0 -311 3 -573 6 -582 9 -24 265 -24 288
0 14 14 16 113 16 945 l0 929 -26 10 c-14 6 -103 10 -199 10 -144 0 -176 -3
-189 -16 -9 -8 -16 -23 -16 -32 0 -9 -9 -44 -19 -77 -11 -33 -29 -94 -41 -135
-12 -41 -26 -88 -32 -105 -9 -27 -19 -63 -63 -220 -8 -27 -21 -68 -29 -90 -8
-22 -15 -49 -16 -59 0 -10 -8 -44 -19 -75 -32 -94 -61 -195 -61 -209 0 -19
-52 -132 -61 -132 -5 0 -11 12 -14 28 -7 30 -36 134 -65 227 -10 33 -22 76
-26 95 -3 19 -12 48 -19 65 -7 16 -18 53 -25 80 -22 85 -48 179 -59 210 -6 17
-20 64 -31 105 -12 41 -30 104 -40 140 -11 36 -27 91 -36 123 -10 32 -25 62
-35 67 -17 10 -347 12 -381 3z"/>
<path d="M4933 4469 c-17 -17 -19 -1849 -3 -1880 10 -18 25 -19 403 -19 367 0
399 1 478 21 46 12 91 27 99 34 8 7 25 16 37 19 23 7 133 114 133 129 0 6 6
18 14 26 7 9 23 48 35 88 30 103 30 311 -1 403 -40 119 -120 204 -218 230 -22
6 -40 17 -40 24 0 18 28 41 70 59 51 21 118 93 151 163 28 59 29 66 29 212 0
143 -1 154 -29 223 -51 127 -137 207 -272 250 -72 23 -83 24 -474 27 -310 2
-403 0 -412 -9z m723 -336 c30 -9 66 -30 81 -45 26 -27 28 -36 31 -132 4 -124
-8 -161 -69 -206 l-43 -30 -185 2 -186 3 -3 199 c-2 138 1 203 9 212 18 22
295 19 365 -3z m0 -758 c59 -18 96 -49 125 -104 18 -35 20 -54 17 -144 -3 -96
-5 -106 -31 -141 -54 -70 -58 -71 -282 -71 l-200 0 -3 224 c-2 156 1 228 9
237 17 21 297 20 365 -1z"/>
<path d="M6493 4474 c-10 -5 -13 -202 -13 -939 0 -513 3 -940 6 -949 5 -14 28
-16 154 -16 109 0 150 3 158 13 8 9 12 135 14 381 3 427 -4 399 108 394 64 -3
65 -3 87 -43 12 -22 27 -51 33 -65 6 -14 20 -43 31 -66 10 -22 19 -45 19 -51
0 -6 6 -16 14 -22 8 -7 17 -27 20 -45 4 -19 13 -39 21 -46 8 -7 15 -19 15 -27
0 -9 9 -32 19 -52 11 -20 32 -63 46 -96 14 -33 30 -67 36 -75 5 -8 12 -22 15
-30 3 -8 16 -38 30 -66 13 -28 24 -54 24 -58 0 -4 10 -16 23 -27 20 -16 41
-18 205 -19 201 0 209 3 178 57 -9 15 -20 39 -26 53 -5 14 -14 32 -20 40 -5 8
-14 26 -20 40 -5 14 -14 32 -20 40 -5 8 -14 26 -20 40 -5 14 -14 32 -20 40
-15 24 -60 126 -60 137 0 6 -6 16 -14 22 -8 7 -17 24 -21 39 -4 15 -12 34 -20
42 -7 8 -16 26 -20 40 -4 14 -13 32 -20 40 -7 8 -16 26 -20 40 -4 14 -14 33
-23 43 -8 9 -16 36 -16 59 -1 37 3 44 29 57 48 25 124 87 156 127 16 20 43 66
61 103 l33 66 0 225 c0 192 -2 229 -16 250 -10 14 -20 36 -24 49 -26 85 -138
185 -262 233 -56 22 -70 22 -463 25 -223 1 -411 0 -417 -3z m721 -343 c36 -13
59 -31 80 -61 30 -41 31 -45 31 -154 0 -103 -2 -116 -25 -150 -14 -21 -46 -48
-72 -62 -44 -23 -57 -24 -211 -24 -125 0 -168 3 -183 14 -17 13 -19 30 -22
210 l-3 196 25 25 c25 25 28 25 178 25 125 0 162 -3 202 -19z"/>
<path d="M8048 4473 c-10 -2 -18 -10 -18 -16 0 -7 0 -428 0 -936 0 -663 3
-928 11 -938 18 -21 312 -19 333 3 14 14 16 113 16 945 l0 929 -26 10 c-25 10
-282 12 -316 3z"/>
<path d="M8753 4470 l-23 -9 0 -930 c0 -832 2 -931 16 -945 22 -23 675 -24
750 -1 27 8 57 15 68 15 43 0 172 75 232 134 68 69 98 119 134 221 l25 70 0
500 c0 495 0 501 -23 570 -35 105 -86 185 -157 245 -51 43 -157 100 -186 100
-9 0 -34 8 -55 17 -34 16 -82 18 -399 20 -209 2 -369 -1 -382 -7z m638 -336
c94 -21 147 -62 183 -140 l26 -56 0 -415 0 -414 -25 -53 c-27 -57 -49 -80
-110 -117 -37 -22 -53 -24 -191 -28 -101 -2 -159 1 -173 8 l-21 12 0 587 c0
609 0 611 40 625 33 12 202 6 271 -9z"/>
<path d="M11813 4473 c-10 -4 -13 -201 -13 -938 0 -513 3 -940 6 -949 6 -14
64 -16 554 -16 490 0 548 2 554 16 8 20 8 288 0 308 -5 14 -48 16 -373 16
-272 0 -370 3 -379 12 -17 17 -17 398 1 421 11 15 45 17 322 19 l310 3 0 155
0 155 -310 3 c-277 2 -311 4 -322 19 -10 12 -13 73 -13 218 0 182 2 203 18
218 16 15 61 17 383 19 l364 3 3 154 c2 117 -1 156 -10 163 -14 8 -1074 10
-1095 1z"/>
<path d="M53 2183 c-10 -4 -13 -126 -13 -564 l0 -559 23 -5 c12 -3 2906 -4
6432 -3 l6410 3 0 565 0 565 -6420 2 c-3531 1 -6426 -1 -6432 -4z m1177 -236
c71 -29 94 -50 119 -114 l20 -52 -24 -55 c-13 -30 -29 -57 -34 -61 -6 -3 3
-18 22 -35 44 -38 60 -104 44 -175 -13 -54 -40 -89 -99 -124 -34 -20 -46 -21
-229 -19 l-193 3 -13 25 c-16 31 -18 544 -3 585 5 14 20 30 32 35 13 5 86 9
163 9 123 1 147 -2 195 -22z m478 -1 c15 -14 17 -44 20 -219 1 -111 5 -212 7
-225 7 -28 64 -55 99 -46 13 3 33 15 44 27 19 20 21 38 24 240 4 254 3 252 96
244 82 -6 86 -15 91 -170 5 -191 -24 -373 -67 -422 -10 -11 -33 -31 -52 -45
-33 -23 -43 -25 -155 -25 -119 0 -120 0 -167 33 -25 18 -59 53 -74 79 l-27 47
-1 239 c-1 227 0 239 19 254 27 19 119 13 143 -11z m688 10 c18 -14 19 -31 22
-288 2 -150 -1 -291 -5 -313 l-9 -40 -61 -3 c-97 -5 -93 -18 -93 313 0 290 5
329 39 338 36 10 88 6 107 -7z m1187 -14 c27 -12 55 -29 63 -37 9 -8 19 -15
24 -15 12 0 51 -68 77 -134 29 -74 30 -151 2 -242 -27 -85 -71 -142 -139 -177
-50 -26 -58 -27 -210 -27 -131 0 -161 3 -174 16 -14 13 -16 55 -16 299 0 290
4 329 39 339 9 2 77 4 151 2 114 -2 143 -6 183 -24z m492 8 c13 -11 15 -55 15
-314 0 -222 -3 -305 -12 -314 -17 -17 -142 -16 -157 2 -8 9 -11 101 -9 317 l3
303 25 14 c30 15 112 11 135 -8z m332 0 c18 -11 39 -34 48 -52 8 -18 35 -64
60 -103 24 -38 57 -92 72 -119 l28 -50 5 158 c5 141 8 159 25 172 24 18 86 18
111 0 18 -14 19 -31 22 -288 2 -150 -1 -291 -5 -313 l-9 -40 -54 -3 c-92 -5
-103 3 -170 120 -8 15 -37 65 -65 110 l-50 83 -5 -145 c-3 -80 -9 -151 -13
-157 -12 -19 -122 -17 -141 3 -14 13 -16 55 -16 299 0 290 5 329 39 338 39 11
89 5 118 -13z m1001 -5 c82 -41 132 -102 132 -161 0 -19 -8 -29 -37 -40 -73
-31 -97 -30 -135 9 -67 67 -154 72 -214 12 -22 -22 -24 -32 -23 -122 0 -54 3
-106 7 -115 4 -9 25 -31 47 -48 35 -28 45 -31 85 -27 56 7 110 36 110 60 0 14
-9 17 -45 17 -24 0 -55 5 -69 12 -50 22 -42 118 10 139 15 5 78 8 140 7 148
-4 148 -3 152 -146 3 -104 3 -108 -24 -143 -16 -20 -54 -48 -89 -64 -55 -27
-69 -29 -176 -30 -107 0 -120 2 -171 28 -67 34 -86 54 -128 132 -30 56 -32 66
-33 167 0 99 2 112 27 163 35 67 86 118 151 150 41 19 67 24 142 24 78 1 98
-3 141 -24z m995 4 c61 -18 79 -29 119 -71 74 -79 74 -137 0 -158 -73 -20
-100 -11 -135 43 -16 25 -22 27 -86 27 -64 0 -72 -2 -100 -31 -31 -30 -31 -32
-31 -136 l0 -105 34 -34 c31 -31 39 -34 95 -34 71 0 124 22 119 48 -3 13 -12
16 -39 14 -75 -7 -117 36 -104 104 8 44 38 54 167 54 150 0 148 2 148 -149 -1
-73 -5 -124 -13 -138 -27 -48 -153 -92 -265 -93 -145 0 -228 46 -297 167 -26
45 -28 55 -28 170 0 97 3 126 15 140 9 10 18 27 22 38 11 38 106 125 136 125
8 0 33 9 55 19 53 26 102 25 188 0z m1476 -10 c72 -27 104 -51 140 -104 62
-93 80 -221 45 -330 -50 -152 -139 -215 -307 -215 -101 0 -158 22 -221 86 -47
46 -59 66 -77 127 -26 87 -27 143 -4 220 37 128 121 206 260 241 33 8 107 -3
164 -25z m3761 7 c84 -39 153 -131 134 -181 -7 -16 -86 -55 -113 -55 -24 0
-61 28 -70 54 -6 14 -24 25 -55 34 -39 10 -51 9 -81 -5 -29 -14 -37 -25 -50
-69 -29 -100 -12 -208 39 -251 25 -21 36 -24 70 -19 47 8 58 16 97 73 25 36
35 43 62 43 18 0 49 -11 71 -26 35 -24 38 -29 33 -62 -15 -88 -95 -160 -197
-178 -144 -24 -260 24 -327 136 -30 51 -49 184 -35 243 7 25 12 57 12 70 0 36
47 114 87 144 69 53 123 72 200 73 54 0 83 -6 123 -24z m-8886 -12 c14 -13 16
-50 16 -245 0 -176 3 -229 13 -230 6 0 62 0 122 0 139 2 159 -7 163 -71 5 -77
3 -78 -242 -78 -151 0 -215 3 -224 12 -9 9 -12 90 -12 304 0 339 -4 324 90
324 40 0 64 -5 74 -16z m4388 4 c41 -8 69 -22 99 -48 37 -32 43 -42 50 -95 4
-32 4 -77 0 -99 -8 -42 -51 -98 -83 -109 -24 -8 -23 -17 7 -52 45 -54 125
-180 125 -198 0 -25 -46 -39 -114 -35 -64 5 -83 20 -136 109 -38 63 -115 141
-137 137 -16 -3 -19 -17 -23 -118 l-5 -114 -35 -8 c-51 -11 -119 1 -130 23
-11 19 -14 538 -4 575 3 12 15 26 27 32 30 15 288 15 359 0z m1232 1 c13 -6
27 -21 30 -33 3 -11 6 -111 6 -221 0 -110 4 -206 9 -214 5 -8 32 -16 64 -19
47 -4 57 -1 76 19 20 22 21 32 21 223 0 241 3 250 74 254 69 4 104 -12 112
-53 8 -43 -2 -312 -14 -390 -13 -85 -34 -127 -78 -162 -54 -42 -94 -53 -188
-53 -126 1 -180 29 -233 119 -26 44 -26 45 -27 276 -1 183 2 235 13 248 16 20
96 23 135 6z m914 -1 c100 -25 161 -95 162 -185 0 -63 -34 -141 -78 -178 -33
-28 -114 -53 -202 -64 l-55 -6 -5 -90 c-5 -83 -7 -90 -30 -103 -25 -13 -114
-12 -128 2 -4 4 -7 142 -7 305 0 238 3 301 14 314 11 14 35 17 148 17 74 0
155 -5 181 -12z m999 -18 c10 -18 13 -82 12 -238 -1 -117 1 -215 4 -218 3 -3
66 -6 142 -7 122 -2 138 -4 151 -21 18 -25 18 -87 0 -112 -14 -18 -28 -19
-236 -19 -208 0 -222 1 -236 19 -11 16 -14 72 -14 290 0 149 3 281 6 292 8 31
41 43 104 41 47 -2 56 -5 67 -27z m547 14 c14 -13 16 -50 16 -245 0 -176 3
-229 13 -230 6 0 62 0 122 0 145 2 160 -6 160 -79 0 -79 -6 -81 -248 -78 -183
3 -200 5 -213 22 -11 16 -14 72 -14 290 0 149 3 281 6 292 3 12 15 26 27 32
34 17 113 14 131 -4z m-1191 -491 c4 -2 7 -40 7 -84 0 -68 -4 -87 -25 -124
-32 -54 -76 -75 -114 -54 -36 20 -37 42 -5 84 l27 36 -22 15 c-19 13 -22 24
-19 67 3 43 7 54 28 65 23 11 101 9 123 -5z"/>
<path d="M1014 1783 c-12 -48 4 -58 87 -55 80 4 93 10 87 38 -5 27 -46 44
-110 44 -54 0 -58 -2 -64 -27z"/>
<path d="M1016 1554 c-11 -28 -6 -92 7 -96 6 -2 45 -2 85 0 67 3 73 6 86 30
17 34 12 49 -24 67 -40 21 -146 20 -154 -1z"/>
<path d="M3378 1643 c-2 -92 0 -173 4 -178 4 -6 35 -10 70 -9 59 2 65 4 95 39
52 60 58 182 13 258 -22 36 -39 43 -132 54 l-47 5 -3 -169z"/>
<path d="M7676 1771 c-61 -67 -74 -166 -32 -248 31 -62 48 -73 116 -73 64 0
84 10 115 60 34 55 36 175 3 223 -34 51 -47 57 -118 57 -53 0 -71 -4 -84 -19z"/>
<path d="M6939 1784 c-6 -7 -9 -30 -7 -51 l3 -38 52 -3 c28 -2 66 1 85 6 29 7
33 13 36 45 4 43 2 44 -91 49 -45 3 -71 0 -78 -8z"/>
<path d="M9114 1776 c-3 -8 -4 -29 -2 -48 l3 -33 66 -3 c76 -3 95 9 84 57 -7
33 -26 41 -98 41 -32 0 -49 -5 -53 -14z"/>
<path d="M2812 708 c-17 -17 -17 -519 0 -536 15 -15 53 -16 79 -2 17 10 19 22
19 139 0 101 3 131 15 141 12 10 19 4 42 -35 15 -26 47 -76 70 -111 23 -35 44
-72 48 -83 15 -49 110 -82 143 -49 17 17 17 519 0 536 -15 15 -53 16 -79 2
-17 -10 -19 -22 -19 -140 0 -70 -3 -135 -6 -144 -10 -25 -29 -19 -47 17 -10
17 -26 46 -37 62 -11 17 -30 47 -42 69 -47 80 -80 129 -93 138 -16 12 -80 9
-93 -4z"/>
<path d="M3633 710 c-13 -5 -24 -21 -28 -42 -4 -18 -13 -44 -21 -58 -8 -14
-20 -43 -28 -65 -8 -22 -24 -65 -36 -95 -12 -30 -29 -73 -36 -95 -8 -22 -21
-54 -29 -72 -8 -17 -15 -38 -15 -46 0 -9 -4 -19 -10 -22 -5 -3 -10 -15 -10
-25 0 -14 10 -21 37 -26 50 -9 84 11 96 56 15 58 20 60 133 60 l104 0 25 -54
c13 -29 32 -56 41 -60 23 -9 77 -7 94 4 12 8 12 13 -2 42 -9 19 -28 65 -42
103 -15 39 -33 84 -40 100 -8 17 -26 62 -41 100 -45 119 -78 190 -89 197 -15
10 -76 9 -103 -2z m91 -245 c18 -58 9 -75 -39 -75 -46 0 -58 18 -46 70 5 23
11 43 13 44 16 14 44 23 50 18 4 -4 14 -30 22 -57z"/>
<path d="M4203 693 c-51 -34 -88 -108 -79 -157 13 -61 90 -118 187 -136 51
-10 129 -53 129 -71 0 -24 -21 -46 -59 -63 -36 -17 -43 -17 -83 -4 -29 10 -48
24 -58 44 -21 40 -29 45 -75 42 -39 -3 -40 -4 -43 -45 -3 -39 1 -47 42 -90
l45 -48 111 -3 c108 -4 113 -3 151 24 97 67 105 197 17 265 -30 23 -151 69
-182 69 -7 0 -25 10 -40 21 -40 31 -31 60 22 76 49 14 98 -1 120 -36 10 -17
22 -21 62 -21 35 0 52 4 56 15 11 27 -17 83 -54 112 -34 26 -45 28 -132 31
-89 3 -97 1 -137 -25z"/>
<path d="M4773 713 c-10 -3 -13 -68 -13 -274 l0 -269 26 -6 c15 -4 39 -3 53 2
25 9 26 12 31 119 l5 110 100 0 100 0 3 -104 c1 -58 8 -111 14 -118 13 -16 80
-17 96 -1 17 17 17 519 0 536 -16 16 -80 16 -96 0 -8 -8 -12 -46 -12 -103 0
-57 -4 -95 -12 -103 -7 -7 -42 -12 -88 -12 -103 0 -110 8 -110 123 0 75 -3 88
-19 97 -20 10 -57 12 -78 3z"/>
<path d="M5383 713 c-17 -6 -16 -28 1 -56 8 -12 17 -38 21 -57 4 -19 12 -40
17 -47 6 -7 14 -27 19 -45 11 -45 47 -146 65 -185 7 -17 14 -37 14 -45 1 -20
39 -101 53 -110 7 -4 29 -8 50 -8 48 0 83 33 93 86 4 22 15 55 25 74 11 19 19
41 19 48 0 8 6 28 14 45 8 18 29 75 46 127 18 52 39 108 47 123 11 22 12 32 2
43 -12 15 -76 19 -95 6 -15 -9 -40 -67 -54 -122 -7 -25 -15 -49 -20 -55 -4 -5
-11 -26 -15 -45 -4 -19 -17 -57 -28 -83 -25 -56 -47 -59 -59 -7 -5 19 -15 49
-22 65 -8 17 -17 46 -21 65 -4 19 -13 44 -20 55 -7 11 -16 36 -20 55 -10 51
-41 80 -84 79 -20 0 -42 -3 -48 -6z"/>
<path d="M6052 708 c-9 -9 -12 -82 -12 -268 0 -186 3 -259 12 -268 7 -7 28
-12 48 -12 20 0 41 5 48 12 9 9 12 82 12 268 0 186 -3 259 -12 268 -16 16 -80
16 -96 0z"/>
<path d="M7548 709 c-16 -9 -18 -33 -18 -269 0 -246 1 -260 19 -270 12 -6 96
-10 203 -10 193 0 208 3 208 44 0 43 -10 47 -154 49 -123 2 -139 4 -152 21
-17 24 -19 97 -2 114 8 8 51 12 128 12 63 0 121 4 128 9 8 5 12 22 10 42 l-3
34 -123 5 c-107 4 -126 8 -138 24 -18 25 -18 67 0 92 13 17 29 19 143 22 70 2
134 8 141 14 19 16 14 56 -7 68 -26 13 -360 13 -383 -1z"/>
<path d="M8772 708 c-14 -14 -15 -47 -3 -67 7 -10 26 -14 66 -12 32 1 63 -3
71 -10 11 -9 14 -53 14 -223 0 -152 3 -215 12 -224 7 -7 26 -12 44 -12 67 0
64 -9 64 219 0 157 3 212 13 225 10 13 32 21 78 25 l64 6 3 34 c2 20 -2 37
-10 42 -22 14 -402 11 -416 -3z"/>
<path d="M9402 712 c-10 -7 -13 -68 -13 -272 0 -282 0 -280 51 -280 50 0 52 8
51 148 -1 80 2 133 8 137 20 12 51 -16 88 -81 21 -36 46 -78 55 -92 10 -15 27
-44 38 -64 15 -29 28 -39 56 -44 21 -4 49 -3 63 2 l26 9 3 260 c3 285 3 285
-58 285 -46 0 -50 -13 -50 -172 0 -139 -1 -148 -19 -148 -11 0 -24 11 -30 28
-13 29 -26 51 -71 122 -16 25 -44 71 -62 102 -18 31 -42 59 -53 62 -29 8 -68
7 -83 -2z"/>
<path d="M6386 694 c-14 -13 -16 -51 -16 -264 0 -236 1 -250 19 -260 24 -12
340 -13 359 -1 8 5 12 22 10 42 l-3 34 -123 5 c-107 4 -126 8 -138 24 -11 16
-14 62 -14 212 0 106 -3 199 -6 208 -8 21 -67 21 -88 0z"/>
<path d="M6966 694 c-3 -9 -6 -130 -6 -269 0 -221 2 -254 16 -259 27 -10 334
-7 355 4 21 12 25 50 7 68 -8 8 -50 12 -123 12 -153 0 -145 -14 -145 233 0
164 -2 198 -16 211 -21 21 -80 21 -88 0z"/>
<path d="M10200 496 c-6 -8 -10 -25 -8 -38 l3 -23 409 -5 c331 -4 412 -2 423
8 16 16 16 27 3 53 -10 18 -26 19 -414 19 -340 0 -405 -2 -416 -14z"/>
<path d="M1604 475 c-4 -8 -3 -26 0 -40 l6 -25 410 0 410 0 6 25 c14 57 31 55
-416 55 -356 0 -411 -2 -416 -15z"/>
<path d="M8166 254 c-14 -36 -6 -82 17 -97 l22 -15 -22 -24 c-13 -13 -23 -34
-23 -46 0 -32 33 -28 64 9 22 26 26 40 26 98 0 39 -5 72 -12 79 -17 17 -65 15
-72 -4z"/>
</g>
</svg>