<svg xmlns="http://www.w3.org/2000/svg" viewBox="0 0 2060.0 1892.0" fill="#EDE5D8">
<g transform="translate(0.000000,1892.000000) scale(0.100000,-0.100000)"
fill="#EDE5D8" stroke="none">
<path d="M10702 18842 c-13 -42 -33 -108 -44 -147 -11 -38 -26 -90 -34 -115
-7 -25 -20 -72 -28 -105 -7 -33 -18 -73 -24 -90 -27 -80 -46 -145 -58 -195
-20 -87 -43 -163 -51 -171 -5 -4 -147 -12 -318 -18 -170 -7 -456 -18 -635 -26
-179 -8 -376 -15 -437 -17 -125 -3 -134 1 -151 62 -6 19 -21 64 -35 100 -14
36 -31 81 -37 100 -7 19 -19 49 -26 65 -8 17 -18 44 -23 60 -5 17 -21 62 -36
100 -26 68 -49 132 -75 205 -7 19 -21 55 -31 80 -10 25 -21 55 -24 67 -9 31
-43 37 -106 20 -88 -25 -141 -38 -194 -48 -27 -6 -72 -17 -100 -25 -52 -16
-131 -35 -250 -60 -38 -8 -85 -19 -104 -25 -37 -12 -116 -32 -226 -55 -38 -8
-90 -20 -115 -28 -25 -7 -90 -23 -145 -35 -55 -13 -129 -31 -165 -42 -36 -11
-77 -19 -92 -19 -15 0 -39 -10 -53 -23 -26 -22 -26 -22 -16 -107 5 -47 20
-164 31 -260 12 -96 30 -245 40 -330 19 -147 23 -201 21 -226 -1 -6 -32 -25
-70 -42 -38 -17 -72 -36 -76 -42 -3 -5 -13 -10 -21 -10 -8 0 -51 -18 -97 -39
-45 -22 -122 -58 -172 -81 -49 -23 -108 -50 -130 -60 -22 -10 -51 -23 -65 -29
-14 -6 -32 -15 -40 -20 -8 -5 -37 -19 -65 -31 -85 -37 -127 -57 -212 -99 -46
-23 -88 -41 -95 -41 -7 0 -24 -9 -38 -20 -14 -11 -35 -20 -46 -20 -12 0 -33
-9 -47 -20 -14 -11 -28 -20 -32 -20 -4 0 -40 -16 -81 -35 -40 -19 -77 -35 -82
-35 -4 0 -138 140 -298 311 -159 171 -299 322 -312 335 -13 13 -31 24 -41 24
-10 0 -53 -26 -95 -57 -42 -32 -117 -87 -167 -123 -50 -36 -115 -83 -145 -105
-97 -71 -208 -152 -442 -322 -29 -21 -86 -63 -127 -93 -41 -30 -113 -82 -161
-115 -47 -33 -102 -74 -122 -91 l-35 -30 28 -50 c15 -27 43 -78 63 -114 19
-36 40 -72 47 -80 7 -8 16 -25 19 -37 4 -11 13 -27 21 -33 8 -7 15 -18 15 -26
0 -7 11 -30 25 -50 13 -20 36 -59 51 -88 14 -28 34 -64 44 -81 11 -16 28 -46
38 -65 88 -162 99 -187 93 -201 -3 -9 -184 -209 -401 -445 -580 -629 -583
-632 -608 -650 -21 -15 -25 -15 -41 0 -10 9 -23 16 -30 16 -7 0 -29 9 -49 20
-44 23 -180 86 -272 125 -36 15 -74 34 -85 41 -11 8 -26 14 -35 14 -8 0 -26 9
-40 20 -14 11 -34 20 -45 20 -11 0 -31 9 -45 20 -14 11 -30 20 -37 20 -6 0
-47 17 -89 39 -43 21 -84 37 -91 34 -11 -5 -26 -27 -98 -148 -11 -18 -40 -66
-65 -105 -25 -39 -54 -87 -65 -105 -42 -71 -101 -169 -115 -191 -8 -13 -53
-87 -100 -164 -47 -77 -92 -151 -100 -164 -8 -13 -44 -72 -80 -130 -36 -58
-84 -136 -107 -174 -23 -37 -46 -74 -49 -82 -4 -8 -15 -24 -25 -36 -33 -35
-28 -73 11 -105 19 -15 141 -111 270 -213 332 -262 400 -317 410 -336 6 -11 3
-27 -7 -46 -8 -16 -19 -42 -23 -59 -5 -16 -20 -63 -35 -103 -14 -40 -23 -77
-20 -82 4 -6 198 -10 524 -10 l518 0 22 24 c12 13 38 55 57 92 19 38 38 76 43
84 4 8 14 26 20 39 7 13 21 38 30 55 76 135 105 185 121 211 11 17 29 46 40
65 11 19 40 67 65 105 24 39 56 90 71 115 15 25 45 67 66 93 21 27 38 52 38
57 0 4 19 33 43 64 23 31 67 90 97 132 176 241 447 559 690 808 349 358 863
781 1219 1004 24 15 56 37 70 48 14 12 52 36 84 55 32 19 71 42 85 51 29 19
152 91 205 121 159 89 254 139 387 203 85 41 171 84 191 95 20 10 43 19 50 19
8 0 25 9 39 20 14 11 33 20 42 20 10 0 32 9 50 20 18 11 40 20 48 20 8 0 33 9
55 19 22 11 65 29 95 41 30 12 74 31 98 41 23 10 49 19 58 19 8 0 32 9 54 20
22 11 47 20 57 20 10 1 36 9 58 20 22 11 49 20 60 20 11 0 38 9 60 20 22 11
48 19 57 20 10 0 39 8 65 19 26 10 69 21 96 25 26 4 47 11 47 16 0 4 19 11 43
15 23 3 71 15 107 25 145 42 579 134 675 143 22 2 85 11 140 20 617 100 1534
103 2150 6 33 -5 106 -16 163 -24 56 -8 129 -21 161 -30 32 -8 72 -15 89 -15
17 0 59 -9 94 -20 34 -11 73 -20 86 -20 12 0 55 -9 95 -20 39 -10 110 -29 157
-40 97 -24 205 -55 270 -77 25 -8 63 -19 85 -23 22 -5 54 -16 70 -24 17 -9 37
-16 45 -16 8 0 38 -9 67 -20 29 -11 77 -28 106 -39 184 -66 257 -95 309 -122
20 -10 44 -19 53 -19 9 0 33 -9 53 -19 73 -39 212 -101 224 -101 7 0 24 -9 38
-20 14 -11 32 -20 40 -20 8 0 26 -9 40 -20 14 -11 32 -20 40 -20 8 0 26 -9 40
-20 14 -11 32 -20 40 -20 8 0 26 -9 40 -20 14 -11 31 -20 38 -20 8 0 26 -8 40
-17 49 -32 67 -43 92 -55 40 -19 220 -123 317 -182 68 -42 319 -208 378 -251
28 -19 61 -43 75 -53 150 -102 422 -322 650 -526 254 -227 581 -569 770 -805
41 -52 85 -104 98 -116 12 -12 22 -30 22 -39 0 -9 4 -16 8 -16 9 0 86 -95 137
-168 17 -24 56 -80 88 -125 63 -88 141 -206 201 -302 21 -33 46 -71 55 -85 10
-14 35 -56 57 -93 21 -38 49 -85 60 -105 35 -60 57 -100 133 -247 40 -77 78
-143 85 -147 6 -4 244 -8 529 -8 l517 0 0 28 c0 15 -7 36 -15 46 -8 11 -15 27
-15 37 0 9 -9 28 -20 42 -11 14 -20 30 -20 36 0 11 -43 104 -115 251 -18 36
-36 76 -40 90 -4 14 -16 37 -26 52 -11 14 -19 35 -19 46 0 10 -9 31 -20 45
-11 14 -20 31 -20 37 0 7 -6 24 -14 38 -46 87 -66 135 -66 160 0 24 43 68 301
308 165 153 316 293 336 311 l37 31 -19 29 c-18 28 -94 133 -195 269 -30 41
-84 115 -120 165 -36 49 -83 114 -105 144 -22 29 -64 86 -93 127 -53 72 -147
202 -238 328 -26 36 -66 90 -89 120 -22 30 -49 67 -58 83 -10 15 -26 27 -36
27 -10 0 -61 -24 -112 -53 -52 -29 -119 -67 -149 -84 -30 -16 -71 -39 -90 -50
-19 -11 -70 -40 -113 -64 -44 -24 -95 -54 -115 -66 -21 -12 -43 -25 -49 -28
-7 -3 -19 -7 -25 -10 -7 -3 -31 -17 -53 -30 -54 -33 -105 -57 -115 -53 -5 2
-80 68 -167 148 -87 80 -170 154 -185 165 -15 11 -28 25 -28 30 0 6 -17 23
-38 40 -20 16 -182 164 -359 328 -260 240 -323 303 -323 324 0 14 18 62 41
106 22 45 48 100 58 122 31 70 103 229 112 248 17 32 26 52 46 97 11 25 39 84
61 131 59 125 60 131 20 160 -18 14 -59 41 -92 60 -32 19 -69 41 -82 49 -28
18 -296 181 -321 195 -16 9 -100 62 -149 92 -10 7 -35 22 -54 33 -19 11 -44
26 -54 33 -49 30 -133 83 -149 92 -9 5 -80 48 -157 95 -77 47 -148 90 -157 95
-10 6 -36 23 -59 38 -24 16 -47 25 -57 21 -14 -5 -135 -153 -290 -353 -150
-195 -291 -366 -303 -369 -8 -2 -21 2 -29 8 -8 7 -29 16 -47 20 -18 4 -62 19
-98 33 -36 14 -81 31 -100 37 -19 7 -55 20 -80 30 -25 10 -61 23 -80 30 -19 6
-64 23 -100 37 -36 14 -79 29 -97 34 -18 5 -45 16 -60 24 -15 8 -35 15 -43 15
-8 0 -28 7 -43 15 -15 8 -42 19 -60 24 -18 5 -61 20 -97 34 -36 14 -81 31
-100 37 -19 7 -55 20 -80 30 -42 16 -72 27 -145 52 -16 6 -50 19 -75 29 -25 9
-54 20 -64 23 -18 6 -19 16 -12 234 3 125 11 332 17 460 8 180 8 236 -1 248
-7 8 -30 14 -54 14 -22 0 -63 7 -90 15 -26 8 -78 17 -115 21 -36 3 -97 12
-136 20 -38 9 -108 19 -155 24 -47 5 -103 14 -125 20 -22 6 -78 15 -125 20
-47 5 -116 15 -155 24 -38 8 -100 17 -136 20 -37 4 -89 13 -115 21 -27 8 -69
15 -94 15 -62 1 -134 16 -138 29 -2 7 -31 11 -70 11 l-67 0 -23 -78z"/>
<path d="M855 12420 c-161 -22 -194 -29 -240 -45 -120 -44 -236 -112 -325
-192 -54 -48 -153 -189 -172 -244 -6 -19 -17 -43 -25 -54 -7 -11 -13 -26 -13
-35 0 -8 -9 -44 -19 -80 -37 -123 -43 -259 -38 -955 3 -363 9 -694 14 -735 11
-87 57 -235 94 -300 94 -168 214 -289 349 -352 186 -87 321 -112 550 -105 340
11 543 116 723 374 33 47 127 250 127 274 0 5 9 42 20 82 22 83 54 253 52 281
0 11 -7 23 -14 27 -7 5 -130 9 -273 9 -300 0 -305 -1 -305 -73 0 -60 -45 -191
-86 -253 -72 -108 -166 -159 -294 -158 -154 1 -269 74 -337 212 l-38 77 0 690
c0 685 0 690 22 746 48 125 137 207 251 235 175 41 326 -22 412 -171 30 -53
70 -177 70 -218 0 -18 7 -43 16 -55 15 -22 18 -22 279 -22 145 0 270 3 279 6
20 8 20 41 1 152 -27 153 -89 365 -116 398 -5 6 -23 37 -40 70 -41 77 -106
157 -179 219 -62 54 -192 135 -214 135 -7 0 -35 8 -62 19 -96 37 -343 58 -469
41z"/>
<path d="M17160 12424 c-14 -2 -63 -9 -110 -15 -182 -23 -383 -123 -511 -256
-50 -51 -139 -174 -139 -190 0 -4 -6 -14 -14 -22 -21 -24 -52 -113 -98 -286
-14 -54 -23 -1343 -10 -1497 19 -221 98 -408 236 -556 61 -66 263 -202 299
-202 7 0 25 -7 41 -15 29 -15 128 -40 221 -55 28 -5 111 -9 185 -9 74 0 158 4
185 9 93 15 192 40 221 55 16 8 36 15 44 16 19 0 134 71 201 124 93 72 217
238 255 339 44 117 64 196 74 294 15 136 13 855 -2 870 -9 9 -128 12 -475 12
-389 0 -463 -2 -470 -14 -4 -8 -6 -131 -3 -273 l5 -258 179 -3 c112 -1 185 -7
193 -13 15 -13 18 -212 3 -269 -53 -204 -191 -311 -403 -310 -147 1 -235 37
-323 133 -95 104 -94 97 -94 827 0 548 2 612 18 681 31 126 108 222 227 279
42 20 64 24 156 24 91 0 111 -3 141 -22 19 -12 41 -22 47 -22 22 0 91 -63 121
-110 16 -25 39 -77 51 -115 11 -39 26 -76 31 -82 13 -16 554 -18 577 -4 12 8
13 16 3 48 -6 21 -14 65 -18 98 -4 33 -15 82 -25 108 -11 26 -19 56 -19 65 0
10 -9 34 -20 55 -11 20 -20 41 -20 46 0 24 -96 174 -150 234 -108 118 -265
213 -410 248 -112 26 -333 45 -400 33z"/>
<path d="M3084 12385 c-16 -12 -44 -77 -44 -102 -1 -10 -9 -36 -20 -58 -11
-22 -20 -49 -20 -60 0 -11 -9 -38 -20 -60 -11 -22 -20 -49 -20 -60 0 -11 -9
-38 -20 -60 -11 -22 -20 -49 -20 -60 0 -11 -9 -38 -20 -60 -11 -22 -20 -49
-20 -60 0 -11 -9 -38 -20 -60 -11 -22 -20 -49 -20 -60 0 -11 -9 -38 -20 -60
-11 -22 -20 -49 -20 -60 0 -11 -9 -38 -20 -60 -11 -22 -20 -49 -20 -60 0 -11
-9 -38 -20 -60 -11 -22 -20 -49 -20 -60 0 -11 -9 -38 -20 -60 -11 -22 -19 -48
-20 -58 0 -11 -7 -33 -15 -50 -14 -30 -28 -74 -56 -177 -6 -25 -20 -64 -30
-87 -11 -24 -19 -51 -19 -60 -1 -10 -9 -36 -20 -58 -11 -22 -20 -49 -20 -60 0
-11 -9 -38 -20 -60 -11 -22 -20 -49 -20 -60 0 -11 -9 -38 -20 -60 -11 -22 -20
-49 -20 -60 0 -11 -9 -38 -20 -60 -11 -22 -20 -49 -20 -60 0 -11 -9 -38 -20
-60 -11 -22 -20 -49 -20 -60 0 -11 -9 -38 -20 -60 -11 -22 -20 -49 -20 -60 0
-11 -9 -38 -20 -60 -11 -22 -20 -49 -20 -60 0 -11 -9 -38 -20 -60 -11 -22 -20
-49 -20 -60 0 -11 -9 -38 -20 -60 -11 -22 -19 -47 -20 -55 0 -18 -42 -148 -95
-295 -10 -27 -19 -63 -19 -80 l-1 -30 274 -3 c298 -3 321 1 321 52 0 13 7 40
15 61 9 20 20 55 25 78 5 23 16 65 25 92 8 28 25 81 37 118 12 37 27 71 34 75
7 4 211 6 453 4 l441 -2 25 -56 c14 -31 25 -63 25 -71 0 -8 9 -42 20 -76 11
-34 27 -84 35 -112 9 -27 20 -68 25 -90 16 -75 17 -76 324 -73 l271 3 3 27 c2
14 -6 47 -17 72 -12 25 -21 53 -21 63 -1 10 -9 36 -20 58 -11 22 -20 49 -20
60 0 11 -9 38 -20 60 -11 22 -20 49 -20 60 0 11 -6 32 -14 47 -8 14 -19 48
-24 75 -6 27 -18 62 -26 78 -9 17 -16 39 -16 50 0 11 -9 38 -20 60 -11 22 -20
49 -20 60 0 11 -9 38 -20 60 -11 22 -20 49 -20 60 0 11 -9 38 -20 60 -11 22
-20 49 -20 60 0 11 -9 38 -20 60 -11 22 -20 49 -20 60 0 11 -9 38 -20 60 -11
22 -20 49 -20 60 0 11 -9 38 -20 60 -11 22 -19 48 -20 58 0 11 -7 33 -15 50
-8 18 -21 55 -29 82 -7 28 -19 66 -26 85 -32 90 -49 141 -70 210 -22 71 -33
105 -74 225 -9 28 -23 70 -30 95 -8 25 -19 61 -26 80 -7 19 -20 58 -30 85 -9
28 -25 73 -34 100 -10 28 -24 70 -31 95 -7 25 -18 61 -25 80 -7 19 -21 58 -30
85 -9 28 -25 73 -34 100 -10 28 -21 64 -26 80 -25 90 -75 215 -87 216 -89 5
-339 2 -349 -6z m213 -1131 c13 -43 33 -106 43 -139 10 -33 22 -75 25 -93 4
-18 13 -45 21 -60 8 -15 14 -36 14 -46 0 -10 8 -44 19 -75 10 -31 28 -87 39
-126 44 -152 65 -222 78 -260 16 -48 18 -82 4 -87 -5 -1 -136 -2 -291 0 l-281
3 5 27 c2 15 9 41 15 57 6 17 20 64 32 105 12 41 26 89 32 105 5 17 16 54 23
83 8 30 21 75 29 100 8 26 25 79 36 117 11 39 29 99 40 135 10 36 29 99 41
140 11 41 23 81 25 88 9 30 29 2 51 -74z"/>
<path d="M5130 12393 c-167 -2 -308 -7 -312 -11 -4 -4 -8 -684 -8 -1512 0
-1208 2 -1505 12 -1512 22 -13 472 -10 486 4 9 9 12 232 12 942 0 594 4 936
10 946 14 21 26 1 33 -54 3 -23 13 -55 21 -71 9 -17 16 -40 16 -53 0 -13 8
-44 18 -70 11 -26 29 -81 42 -122 12 -41 31 -99 41 -128 11 -29 19 -60 19 -70
0 -9 7 -30 15 -46 9 -17 20 -50 26 -75 5 -25 15 -62 23 -81 7 -19 23 -69 36
-110 12 -41 29 -93 38 -115 8 -22 18 -56 22 -75 4 -19 15 -57 25 -85 9 -27 21
-63 27 -80 6 -16 17 -55 25 -85 8 -30 19 -59 23 -65 4 -5 11 -26 15 -45 13
-61 9 -60 230 -60 151 0 205 3 212 13 5 6 17 39 27 72 34 112 58 190 77 245
10 30 21 70 24 88 4 18 13 45 21 60 8 15 14 34 14 42 0 14 22 87 57 190 8 25
19 63 23 85 5 22 16 54 24 70 9 17 16 41 16 55 0 14 7 39 16 55 8 17 19 48 24
70 9 40 28 103 57 185 8 25 19 65 24 89 5 24 13 49 18 55 4 6 11 29 15 51 11
61 16 75 31 75 7 0 16 -11 19 -25 4 -14 6 -440 6 -947 -1 -742 2 -923 12 -930
22 -13 472 -10 486 4 18 18 17 3012 0 3024 -7 5 -157 7 -333 4 l-320 -5 -18
-55 c-10 -30 -26 -86 -37 -125 -10 -38 -23 -83 -29 -100 -5 -16 -19 -64 -31
-105 -27 -91 -57 -195 -81 -275 -9 -33 -27 -94 -39 -135 -24 -84 -50 -170 -80
-275 -12 -38 -30 -101 -41 -140 -12 -38 -29 -97 -39 -130 -10 -33 -27 -94 -39
-135 -12 -41 -30 -104 -41 -140 -11 -36 -29 -99 -41 -140 -12 -41 -24 -79 -26
-83 -8 -14 -33 14 -33 37 0 11 -9 48 -19 81 -21 62 -45 144 -81 275 -36 126
-61 214 -72 245 -5 17 -14 46 -19 65 -11 40 -41 142 -70 245 -12 39 -29 99
-39 135 -10 36 -28 97 -39 135 -11 39 -30 104 -42 145 -12 41 -29 102 -39 135
-50 169 -60 204 -71 247 -14 56 -44 109 -61 106 -7 -2 -150 -4 -318 -5z"/>
<path d="M7843 12382 c-11 -11 -13 -282 -13 -1503 0 -1008 3 -1497 10 -1510
10 -18 28 -19 603 -19 580 0 731 6 812 33 22 8 58 20 80 27 122 38 298 176
343 268 10 20 23 46 29 57 56 104 83 255 83 456 -1 252 -48 403 -164 526 -81
87 -167 142 -261 167 -33 9 -40 15 -40 36 0 20 7 26 40 36 65 18 183 95 235
151 51 56 110 168 130 248 19 72 25 317 10 401 -6 38 -15 92 -20 119 -4 28
-15 64 -23 80 -9 17 -26 52 -39 78 -13 26 -51 79 -86 117 -112 123 -236 189
-422 224 -116 23 -1285 29 -1307 8z m1116 -533 c164 -28 231 -119 231 -313 0
-149 -41 -251 -123 -303 -68 -44 -137 -53 -408 -53 -216 0 -248 2 -253 16 -3
9 -6 154 -6 324 0 170 3 315 6 324 5 14 37 16 247 16 133 0 270 -5 306 -11z
m91 -1231 c49 -24 91 -59 128 -109 26 -35 42 -131 42 -254 0 -68 -4 -134 -9
-147 -5 -13 -12 -35 -15 -50 -11 -48 -97 -123 -168 -147 -57 -19 -87 -21 -335
-21 -150 -1 -277 2 -283 5 -16 10 -13 727 3 744 9 10 74 12 297 9 283 -4 285
-4 340 -30z"/>
<path d="M10296 12391 c-4 -5 -6 -688 -6 -1517 0 -1199 2 -1509 12 -1516 7 -4
128 -8 269 -8 203 0 259 3 268 13 8 10 12 192 13 618 l3 604 124 3 c85 2 128
-1 138 -9 14 -12 48 -79 118 -234 20 -44 47 -101 61 -127 13 -26 24 -53 24
-60 0 -7 9 -24 20 -38 11 -14 20 -35 20 -46 0 -12 9 -33 20 -47 11 -14 20 -30
20 -36 0 -6 10 -30 21 -53 12 -24 30 -61 40 -83 10 -22 37 -80 60 -130 43 -93
69 -152 88 -195 6 -14 15 -32 19 -40 5 -8 22 -42 38 -75 l29 -60 300 -3 c304
-3 345 0 345 19 0 7 -31 75 -70 153 -38 77 -115 236 -171 351 -56 116 -106
218 -110 228 -17 32 -29 57 -41 80 -6 12 -14 29 -18 37 -4 8 -13 26 -20 40 -7
14 -17 33 -22 43 -4 9 -13 27 -20 40 -22 44 -26 53 -53 117 -15 36 -34 72 -41
81 -8 8 -14 22 -14 29 0 7 -8 22 -17 33 -17 18 -17 20 12 43 16 13 42 26 56
29 62 14 269 192 269 233 0 6 6 12 13 13 23 1 94 170 123 294 27 114 27 454 0
570 -27 118 -60 195 -127 300 -32 49 -161 172 -197 188 -15 6 -34 16 -42 23
-19 16 -104 49 -195 76 -68 21 -93 22 -712 25 -414 3 -643 1 -647 -6z m1234
-576 c92 -63 129 -152 130 -311 1 -207 -56 -314 -189 -354 -60 -19 -90 -20
-341 -18 l-275 3 -3 348 -2 348 22 9 c13 5 150 8 319 7 l296 -2 43 -30z"/>
<path d="M12810 12392 c-14 -2 -28 -7 -32 -11 -4 -4 -8 -683 -8 -1511 0 -1208
2 -1505 12 -1512 19 -12 516 -10 539 2 19 11 19 38 19 1509 0 1268 -2 1500
-14 1510 -13 11 -450 22 -516 13z"/>
<path d="M13930 12392 c-14 -2 -28 -7 -32 -11 -4 -4 -8 -684 -8 -1511 0 -1204
2 -1505 12 -1512 19 -12 1133 -3 1188 11 25 5 72 17 105 24 57 14 111 34 165
62 14 7 49 26 79 42 62 32 198 156 240 217 56 83 107 197 137 311 17 65 19
124 22 808 3 732 1 784 -32 926 -17 73 -84 216 -129 276 -130 171 -290 271
-527 328 -79 19 -127 21 -640 26 -305 3 -566 4 -580 3z m1105 -581 c97 -46
118 -63 160 -127 70 -105 70 -103 70 -814 0 -683 1 -670 -53 -779 -25 -49
-102 -131 -124 -131 -6 0 -22 -8 -36 -19 -49 -34 -177 -51 -380 -51 -133 0
-192 4 -200 12 -9 9 -12 238 -12 970 0 901 1 958 18 968 11 7 96 9 252 7 l235
-3 70 -33z"/>
<path d="M18769 12386 c-15 -16 -12 -3009 3 -3024 17 -17 1759 -17 1776 0 19
19 17 501 -2 517 -10 8 -178 11 -610 11 -328 0 -601 2 -606 5 -13 8 -13 682 0
690 5 3 235 5 511 5 361 0 505 3 515 11 11 9 14 61 14 259 0 198 -3 250 -14
259 -10 8 -154 11 -515 11 -276 0 -506 2 -511 5 -6 4 -10 140 -10 349 0 281 3
346 14 355 10 9 174 11 610 11 328 -1 600 2 606 5 13 8 14 522 1 530 -17 10
-1771 11 -1782 1z"/>
<path d="M37 8758 c-16 -12 -17 -76 -17 -908 0 -492 0 -900 0 -907 0 -6 7 -19
16 -27 14 -15 961 -16 10266 -16 l10251 0 24 27 c24 26 25 27 13 102 -8 53
-10 159 -6 351 3 151 9 518 12 815 l5 540 -29 18 c-29 16 -536 17 -10274 17
-8180 0 -10248 -3 -10261 -12z m20540 -330 c-2 -13 -4 -3 -4 22 0 25 2 35 4
23 2 -13 2 -33 0 -45z m-12022 -90 c82 -27 170 -102 204 -173 29 -62 27 -83
-6 -91 -16 -3 -51 -13 -80 -21 -63 -19 -75 -15 -106 34 -32 50 -53 68 -111 94
-38 16 -60 20 -97 15 -93 -12 -173 -63 -217 -136 -26 -43 -27 -50 -27 -190 l0
-145 33 -53 c18 -30 45 -64 60 -77 32 -28 123 -65 160 -65 41 0 146 36 192 65
40 25 41 27 38 78 l-3 52 -89 3 c-50 2 -96 8 -103 14 -10 8 -13 31 -11 77 l3
66 190 5 c105 3 196 1 203 -4 9 -6 12 -56 12 -188 l0 -180 -28 -26 c-16 -15
-42 -33 -58 -40 -16 -8 -42 -21 -59 -29 -60 -30 -187 -57 -270 -58 -73 0 -210
32 -247 57 -14 10 -30 18 -35 18 -5 0 -24 16 -43 35 -19 19 -40 35 -47 35 -7
0 -13 9 -13 21 0 11 -8 28 -18 37 -10 10 -29 44 -43 77 -22 56 -24 73 -24 230
1 166 2 172 29 228 15 32 34 61 42 64 8 3 14 16 14 29 0 13 6 24 13 24 8 0 22
10 33 21 32 36 96 75 159 97 88 31 254 31 350 0z m9907 1 c73 -25 134 -65 173
-111 28 -33 65 -109 65 -133 0 -14 -57 -40 -121 -54 -46 -10 -52 -6 -112 72
-96 126 -282 92 -362 -67 -17 -34 -20 -60 -20 -180 0 -118 3 -149 19 -186 53
-122 176 -179 281 -131 50 23 78 53 114 122 33 62 46 65 141 28 71 -28 76 -33
62 -61 -6 -13 -18 -39 -27 -58 -28 -64 -43 -85 -90 -126 -59 -53 -176 -94
-265 -94 -70 0 -187 32 -240 66 -44 27 -122 109 -144 149 -47 88 -56 131 -56
278 0 146 13 211 62 302 20 37 112 126 153 149 108 60 254 73 367 35z m-16543
-6 c70 -16 81 -23 139 -78 66 -65 66 -64 63 -180 -2 -63 -11 -85 -60 -131 -17
-16 -31 -34 -31 -41 0 -6 19 -25 41 -42 23 -16 53 -47 68 -68 24 -35 26 -47
26 -133 0 -85 -3 -99 -27 -135 -28 -44 -67 -82 -113 -111 -26 -17 -58 -19
-335 -24 -168 -3 -311 -1 -317 4 -18 12 -19 926 -1 944 20 20 453 16 547 -5z
m759 5 c9 -9 12 -96 12 -327 1 -278 3 -320 18 -352 27 -57 57 -88 103 -109 56
-25 89 -25 149 1 40 17 55 31 80 75 l30 54 0 323 c0 238 3 326 12 335 7 7 41
12 84 12 112 0 106 20 101 -324 -5 -365 -15 -460 -56 -520 -49 -71 -95 -101
-196 -126 -71 -17 -106 -21 -164 -16 -159 13 -246 59 -306 161 -38 66 -47 149
-52 491 -5 355 -11 334 101 334 43 0 77 -5 84 -12z m1121 -2 c8 -9 10 -143 9
-477 l-3 -464 -85 0 -85 0 -3 464 c-1 334 1 468 9 477 8 9 34 14 79 14 45 0
71 -5 79 -14z m1866 -7 c101 -25 172 -83 226 -184 28 -52 59 -203 59 -286 0
-74 -29 -219 -54 -266 -45 -88 -72 -116 -161 -169 l-50 -29 -265 0 -265 0 -3
464 c-2 344 1 467 10 478 16 20 416 13 503 -8z m774 7 c8 -9 10 -143 9 -477
l-3 -464 -85 0 -85 0 -3 464 c-1 334 1 468 9 477 8 9 34 14 79 14 45 0 71 -5
79 -14z m572 -17 c16 -17 29 -37 29 -44 0 -7 7 -18 16 -25 8 -8 22 -27 30 -44
7 -17 32 -58 53 -91 22 -33 59 -91 81 -130 23 -38 50 -83 60 -100 11 -16 28
-46 39 -66 18 -34 38 -49 62 -49 5 0 9 116 9 278 0 203 3 281 12 290 13 13
126 16 146 4 16 -10 19 -929 3 -945 -5 -5 -47 -9 -93 -8 -80 2 -84 3 -108 34
-24 30 -110 165 -110 172 0 2 -18 31 -40 64 -22 33 -40 64 -40 69 0 5 -9 17
-20 27 -11 10 -20 23 -20 28 0 5 -16 34 -35 62 -19 29 -39 65 -45 79 -6 16
-17 26 -30 26 -20 0 -20 -6 -20 -269 0 -206 -3 -271 -13 -279 -14 -12 -148
-19 -166 -8 -16 10 -16 927 1 944 7 7 43 12 91 12 75 0 80 -1 108 -31z m3132
14 c49 -9 110 -27 134 -41 98 -55 193 -225 137 -246 -9 -3 -35 -6 -59 -6 -24
0 -54 -4 -68 -9 -21 -8 -30 -2 -81 55 -62 69 -94 84 -181 84 -86 0 -125 -17
-187 -80 -72 -73 -81 -107 -76 -260 4 -89 9 -123 24 -151 39 -69 65 -98 121
-129 53 -30 61 -32 132 -27 85 5 183 42 200 76 6 11 11 38 11 60 0 54 -21 65
-116 59 -40 -3 -78 -2 -85 3 -13 8 -20 131 -8 150 6 11 385 16 396 6 3 -3 5
-90 5 -193 -1 -214 0 -212 -96 -257 -131 -62 -152 -67 -305 -67 -187 0 -233
16 -335 112 -71 66 -85 87 -125 186 -20 48 -22 68 -19 200 4 169 20 226 89
317 57 76 156 139 236 151 26 4 57 10 68 15 32 12 90 10 188 -8z m2315 -2 c51
-10 101 -25 110 -34 9 -8 26 -17 37 -21 43 -13 114 -91 151 -166 29 -59 39
-93 46 -160 11 -113 0 -265 -22 -310 -9 -19 -20 -47 -24 -63 -11 -46 -124
-152 -199 -187 -63 -29 -70 -30 -212 -30 -126 0 -151 3 -185 20 -22 11 -45 20
-51 20 -22 0 -122 94 -153 144 -53 86 -76 176 -76 303 0 92 4 124 26 189 14
44 32 86 40 95 8 8 14 20 14 26 0 20 99 110 150 137 28 15 75 30 103 33 29 3
59 9 67 14 24 13 78 10 178 -10z m-8105 -10 c5 -5 8 -160 8 -370 -1 -241 2
-367 9 -381 10 -19 21 -20 228 -20 119 0 222 -4 228 -8 16 -11 25 -117 11
-136 -11 -14 -52 -16 -334 -17 -177 0 -327 2 -333 6 -13 8 -14 917 0 931 12
12 170 8 183 -5z m7083 -27 c37 -18 65 -42 91 -76 32 -44 37 -58 41 -123 2
-40 1 -94 -2 -118 -10 -63 -66 -125 -145 -161 -34 -15 -61 -29 -61 -32 0 -3
22 -26 48 -52 43 -42 68 -77 170 -237 14 -22 35 -55 48 -74 37 -55 27 -61 -96
-61 l-109 0 -89 133 c-145 215 -149 221 -185 245 -28 19 -46 23 -93 20 l-59
-3 -3 -184 c-1 -115 -7 -189 -13 -198 -14 -15 -164 -19 -174 -3 -10 16 -7 943
4 949 5 3 136 5 291 4 l281 -2 55 -27z m1872 22 c9 -5 12 -90 12 -328 0 -312
1 -322 22 -366 34 -67 77 -95 154 -100 83 -6 117 9 157 67 l32 46 5 340 5 340
80 6 c59 5 84 3 94 -7 12 -11 14 -75 13 -373 -1 -346 -2 -362 -23 -408 -28
-63 -82 -119 -145 -149 -47 -22 -63 -24 -206 -24 -144 0 -160 2 -210 25 -67
31 -98 62 -140 145 l-33 65 -3 353 c-2 222 0 358 6 365 11 13 160 16 180 3z
m1538 -23 c120 -64 175 -221 127 -366 -47 -144 -136 -192 -375 -203 -73 -4
-139 -11 -146 -17 -10 -8 -13 -47 -11 -167 1 -86 -1 -162 -5 -168 -11 -18
-160 -16 -175 2 -8 9 -10 143 -9 477 l3 464 29 5 c16 3 140 3 275 0 228 -5
249 -7 287 -27z m1484 -343 c3 -206 9 -381 13 -387 6 -10 63 -13 226 -13 176
0 221 -3 230 -14 7 -9 11 -40 9 -78 l-3 -63 -308 -5 c-170 -3 -317 -2 -328 2
-18 7 -19 22 -19 466 0 252 3 462 7 466 4 4 43 5 88 4 l80 -3 5 -375z m888
368 c9 -9 12 -107 12 -378 0 -271 3 -369 12 -378 9 -9 73 -12 224 -12 180 0
215 -2 228 -16 20 -20 22 -117 2 -133 -9 -8 -107 -11 -337 -9 l-324 3 -5 448
c-3 247 -2 457 2 468 6 17 17 19 91 19 51 0 88 -5 95 -12z m-1903 -879 c0
-103 -3 -121 -25 -163 -22 -45 -99 -116 -123 -116 -18 0 -47 32 -47 52 0 10
16 33 35 50 67 58 67 94 2 100 l-32 3 -3 84 c-2 46 0 90 2 98 4 11 27 13 98
11 l93 -3 0 -116z"/>
<path d="M1580 8180 c-23 -15 -28 -181 -5 -203 26 -27 224 -24 281 4 57 27 67
42 66 95 0 54 -11 68 -70 94 -35 16 -66 20 -151 20 -58 0 -113 -5 -121 -10z"/>
<path d="M1573 7789 c-16 -16 -18 -192 -3 -220 10 -17 22 -19 138 -19 144 0
184 8 224 47 24 23 28 35 28 79 0 50 -2 54 -42 86 l-42 33 -146 3 c-107 2
-148 0 -157 -9z"/>
<path d="M5350 8170 c-19 -19 -20 -33 -20 -303 0 -220 3 -287 13 -301 12 -17
26 -18 133 -14 103 3 125 7 157 27 46 28 87 80 87 110 0 12 7 38 15 58 32 77
10 256 -42 335 -35 52 -78 76 -168 93 -106 21 -151 19 -175 -5z"/>
<path d="M12255 8159 c-49 -14 -110 -73 -141 -136 -26 -53 -28 -67 -29 -173 0
-105 2 -120 27 -170 50 -104 133 -160 236 -160 104 0 175 49 231 159 19 37 22
59 23 166 0 113 -2 128 -26 178 -29 63 -93 122 -145 137 -43 12 -134 12 -176
-1z"/>
<path d="M10997 8153 c-4 -3 -7 -53 -7 -109 0 -130 -4 -127 168 -122 121 3
129 4 163 31 28 21 38 37 41 64 7 60 -2 83 -45 114 -40 29 -42 29 -177 29 -75
0 -140 -3 -143 -7z"/>
<path d="M14450 8145 c-17 -20 -10 -216 9 -238 21 -26 167 -23 232 4 51 22 89
68 89 108 0 40 -28 89 -66 115 -36 24 -47 26 -145 26 -81 0 -109 -3 -119 -15z"/>
<path d="M2087 6453 c-14 -13 -7 -40 32 -118 22 -44 58 -120 81 -170 22 -49
50 -107 60 -127 11 -20 20 -43 20 -51 0 -8 9 -26 20 -40 11 -14 20 -30 20 -36
0 -6 18 -48 39 -94 67 -139 139 -294 170 -367 6 -14 15 -32 20 -40 14 -25 51
-107 51 -115 0 -4 10 -20 21 -37 15 -21 19 -35 13 -48 -5 -9 -81 -84 -170
-166 -88 -82 -237 -221 -332 -308 -95 -88 -172 -165 -172 -172 0 -6 23 -42 52
-80 100 -133 134 -179 150 -204 19 -28 216 -297 278 -380 23 -30 87 -118 143
-195 56 -78 111 -153 122 -168 11 -15 38 -52 60 -82 22 -30 60 -82 83 -115 43
-59 73 -75 97 -51 6 5 26 18 45 28 82 46 194 110 228 130 21 12 43 25 50 28 6
3 18 7 25 10 6 3 28 16 49 28 20 12 71 42 115 66 43 24 94 53 113 64 19 11 52
29 72 39 20 10 40 22 43 28 17 28 57 0 239 -167 105 -98 294 -272 419 -388
125 -115 227 -216 227 -222 0 -7 11 -13 24 -13 14 0 26 -6 28 -13 2 -7 49 -55
106 -106 106 -96 117 -116 87 -155 -8 -11 -15 -27 -15 -35 0 -9 -9 -27 -20
-41 -11 -14 -20 -34 -20 -45 0 -11 -9 -31 -20 -45 -11 -14 -20 -30 -20 -37 0
-6 -18 -48 -40 -92 -22 -44 -40 -83 -40 -86 0 -3 -18 -45 -41 -93 -22 -48 -49
-105 -59 -127 -10 -22 -35 -74 -54 -114 l-36 -75 22 -23 c13 -13 33 -29 45
-36 13 -7 86 -50 163 -97 77 -47 148 -90 157 -95 10 -6 38 -24 63 -40 25 -16
77 -49 115 -72 126 -75 197 -118 221 -133 28 -18 296 -181 321 -195 10 -5 43
-26 73 -46 70 -46 179 -109 188 -109 7 0 263 317 367 455 116 154 196 251 213
262 16 10 29 8 69 -7 26 -10 64 -24 83 -30 19 -7 54 -21 78 -31 23 -11 49 -19
57 -19 8 0 34 -8 57 -19 24 -10 59 -24 78 -31 19 -6 64 -23 100 -37 36 -14 79
-29 97 -34 18 -5 45 -16 60 -24 15 -8 35 -15 43 -15 8 0 28 -7 43 -15 15 -8
42 -19 60 -24 18 -5 61 -20 97 -34 36 -14 81 -31 100 -37 19 -7 55 -20 80 -30
25 -10 60 -22 78 -29 17 -6 47 -16 65 -22 49 -18 129 -49 157 -63 24 -12 25
-15 24 -117 0 -57 -6 -263 -14 -458 -12 -330 -12 -355 4 -366 9 -7 69 -20 134
-30 64 -9 151 -23 192 -32 41 -8 109 -18 150 -23 41 -5 118 -16 170 -24 210
-36 541 -88 640 -101 25 -4 77 -13 117 -21 40 -8 95 -14 122 -14 47 0 51 2 56
27 4 16 15 53 26 84 10 31 19 62 19 70 0 8 9 46 21 84 11 39 30 102 41 140 10
39 28 99 38 135 51 180 59 208 66 240 3 19 16 54 27 77 20 40 24 43 61 43 45
0 325 11 1006 40 348 15 447 17 456 7 10 -11 27 -51 54 -127 6 -19 23 -64 37
-100 14 -36 29 -81 35 -100 6 -19 17 -44 24 -55 8 -11 14 -27 14 -37 0 -10 8
-37 19 -60 10 -24 24 -58 30 -75 29 -84 35 -101 52 -139 11 -23 19 -47 19 -54
0 -6 6 -26 14 -43 8 -18 16 -40 20 -50 9 -29 35 -31 112 -9 41 12 84 22 97 22
13 0 50 8 83 19 32 10 104 29 159 41 55 12 129 30 165 40 36 10 110 28 165 40
55 13 129 31 165 41 36 9 83 20 105 24 22 3 63 12 90 20 28 7 86 22 130 33 44
11 112 28 150 37 39 10 86 21 105 24 l35 6 3 65 c2 36 -4 106 -12 155 -8 50
-18 122 -21 160 -6 62 -18 170 -55 459 -6 47 -6 85 -1 95 11 19 26 27 371 183
47 22 102 48 122 58 20 11 43 20 51 20 8 0 26 9 40 20 14 11 30 20 36 20 6 0
48 18 94 39 218 104 254 121 263 121 5 0 20 9 34 20 14 11 34 20 45 20 11 0
31 9 45 20 14 11 30 20 37 20 7 0 29 8 50 19 113 56 154 72 176 69 17 -2 114
-100 328 -330 207 -223 310 -328 324 -328 17 0 99 56 305 210 75 56 206 152
410 299 112 82 197 144 257 188 24 18 48 33 53 33 6 0 10 7 10 15 0 8 6 15 13
15 20 0 221 150 229 171 9 23 -8 62 -64 149 -8 14 -29 50 -45 80 -52 96 -75
135 -84 144 -5 6 -9 18 -9 28 0 10 -9 23 -20 30 -12 8 -20 24 -20 40 0 16 -6
28 -12 28 -7 0 -28 31 -45 69 -18 38 -40 74 -48 81 -8 7 -15 21 -15 31 0 10
-5 21 -11 25 -6 3 -17 21 -25 38 -8 17 -21 41 -30 53 -15 21 -12 25 66 113 46
50 91 97 101 103 11 7 19 17 19 22 0 6 47 60 104 120 58 61 241 259 408 440
195 212 312 331 326 333 12 2 34 -3 50 -10 15 -8 36 -19 47 -25 11 -5 40 -19
65 -30 111 -49 236 -106 250 -114 8 -5 26 -14 40 -20 88 -39 286 -130 322
-149 20 -11 45 -20 56 -20 18 0 52 28 52 43 0 4 15 29 34 56 19 27 49 75 66
107 17 32 37 65 44 74 7 8 28 41 47 74 19 32 43 73 54 91 11 19 37 62 58 97
21 35 58 95 83 133 24 39 47 77 51 85 6 12 29 49 91 145 7 11 19 34 27 52 8
17 19 34 24 37 5 4 26 34 45 69 20 34 42 71 49 82 52 86 82 134 98 157 37 53
29 67 -102 169 -104 81 -361 283 -537 422 -44 35 -52 47 -52 75 0 18 9 50 20
72 11 22 20 45 20 52 1 7 9 31 20 53 11 22 19 48 20 58 0 9 9 34 20 54 11 21
20 46 20 55 0 10 9 37 19 60 40 88 63 157 59 180 l-3 23 -510 0 -510 0 -30
-62 c-16 -34 -38 -81 -49 -105 -10 -24 -23 -52 -29 -63 -16 -32 -22 -43 -87
-175 -34 -69 -66 -129 -70 -135 -4 -5 -25 -41 -45 -80 -38 -71 -45 -83 -123
-216 -131 -225 -507 -769 -532 -769 -6 0 -10 -9 -10 -20 0 -10 -6 -23 -14 -27
-8 -4 -45 -46 -81 -93 -351 -446 -990 -1049 -1445 -1363 -14 -9 -72 -51 -130
-92 -58 -41 -147 -100 -198 -132 -51 -32 -112 -70 -135 -85 -46 -29 -81 -50
-128 -74 -17 -9 -33 -22 -36 -30 -3 -8 -18 -14 -34 -14 -15 0 -32 -6 -36 -13
-4 -7 -26 -23 -48 -35 -62 -33 -545 -273 -595 -296 -56 -25 -125 -55 -165 -72
-16 -7 -56 -24 -89 -38 -32 -14 -66 -26 -75 -26 -9 0 -25 -6 -36 -14 -11 -7
-36 -18 -55 -24 -19 -6 -73 -25 -120 -42 -47 -18 -98 -35 -115 -40 -16 -4 -48
-14 -70 -22 -37 -14 -73 -25 -245 -77 -36 -11 -103 -29 -150 -41 -47 -11 -107
-27 -135 -35 -89 -25 -326 -75 -455 -95 -36 -6 -94 -17 -130 -25 -36 -8 -110
-20 -165 -25 -55 -6 -125 -15 -156 -21 -30 -5 -170 -18 -310 -29 -455 -36
-1143 -22 -1499 30 -41 6 -111 15 -155 20 -145 17 -525 88 -700 132 -22 5 -65
16 -95 23 -30 7 -77 20 -103 29 -26 9 -55 16 -65 16 -16 0 -91 22 -200 61 -30
11 -61 19 -70 19 -10 1 -35 9 -57 20 -22 11 -49 20 -60 20 -11 0 -38 9 -60 20
-22 11 -48 19 -57 20 -10 0 -37 9 -60 19 -24 11 -70 29 -103 41 -64 23 -134
52 -200 81 -22 9 -85 36 -140 60 -85 36 -216 95 -290 132 -11 6 -28 14 -37 19
-10 4 -28 13 -40 20 -13 6 -32 16 -43 21 -11 6 -27 14 -35 18 -8 5 -37 20 -64
34 -110 58 -176 97 -176 106 0 5 -12 9 -28 9 -16 0 -32 8 -40 20 -7 11 -19 20
-27 20 -9 0 -28 8 -43 18 -92 63 -154 102 -161 102 -4 0 -28 15 -52 33 -24 19
-57 41 -74 51 -108 59 -525 370 -727 540 -391 331 -783 739 -1100 1148 -163
210 -174 226 -339 475 -91 138 -118 179 -149 233 -8 14 -33 56 -55 93 -109
184 -153 267 -256 477 -50 102 -99 201 -110 221 -10 20 -19 44 -19 52 0 9 -12
25 -26 36 -26 21 -36 21 -534 21 -279 0 -510 -3 -513 -7z"/>
<path d="M6748 6406 c-64 -15 -129 -64 -162 -120 -26 -44 -28 -55 -24 -130 3
-79 5 -85 42 -130 26 -32 57 -56 100 -75 64 -30 198 -71 229 -71 32 0 107 -50
113 -76 9 -35 -17 -96 -46 -110 -66 -31 -98 -35 -155 -20 -70 18 -91 36 -122
105 l-24 53 -77 -7 c-42 -4 -80 -9 -84 -12 -28 -16 13 -139 65 -198 57 -66
108 -91 212 -105 73 -9 106 -9 176 3 113 18 167 50 215 124 33 51 36 64 37
127 1 67 -2 75 -44 145 -44 74 -98 122 -149 134 -14 3 -52 13 -85 22 -33 9
-78 22 -100 28 -60 16 -93 35 -111 61 -14 22 -14 27 0 54 18 35 59 52 126 52
74 0 105 -16 141 -71 l31 -49 67 0 c53 0 72 4 84 18 21 23 21 39 1 88 -52 124
-152 176 -333 173 -42 -1 -97 -6 -123 -13z"/>
<path d="M4462 6402 c-10 -7 -13 -101 -13 -435 0 -235 3 -432 6 -437 9 -14
162 -13 171 1 4 6 6 111 5 233 -1 122 1 229 4 239 11 27 33 20 50 -15 18 -40
37 -72 135 -228 41 -66 82 -132 90 -147 8 -16 26 -43 38 -61 l24 -33 91 3 92
3 3 429 c1 308 -1 433 -9 442 -14 17 -121 19 -150 4 -18 -10 -19 -24 -19 -256
l0 -245 -22 3 c-14 2 -30 16 -41 38 -9 19 -25 47 -35 61 -9 15 -34 55 -55 90
-21 35 -51 84 -67 109 -17 25 -33 52 -37 60 -14 31 -58 96 -82 123 -23 25 -31
27 -95 27 -39 0 -77 -4 -84 -8z"/>
<path d="M5774 6402 c-6 -4 -20 -25 -31 -47 -19 -38 -26 -55 -59 -150 -8 -22
-21 -52 -29 -67 -8 -14 -15 -33 -15 -42 0 -8 -9 -35 -19 -58 -29 -65 -57 -135
-87 -218 -15 -41 -32 -80 -37 -87 -5 -7 -13 -27 -17 -45 -4 -18 -18 -56 -31
-84 -33 -78 -26 -85 78 -82 99 3 91 -3 134 113 12 33 27 66 32 73 7 9 54 12
173 12 l164 0 11 -27 c6 -16 22 -57 35 -92 13 -36 29 -68 36 -73 18 -11 186
-10 193 1 3 5 -2 27 -11 48 -9 21 -24 56 -34 78 -10 22 -28 67 -40 100 -12 33
-30 78 -40 100 -10 22 -28 67 -40 100 -12 33 -30 78 -40 100 -10 22 -27 67
-40 100 -12 33 -28 74 -35 90 -54 123 -67 150 -78 157 -15 10 -159 10 -173 0z
m105 -278 c2 -10 12 -38 22 -61 10 -23 19 -47 19 -52 0 -6 10 -30 21 -55 34
-68 26 -76 -81 -76 -72 0 -92 3 -96 15 -6 14 5 49 52 165 7 19 18 48 24 63 11
31 33 32 39 1z"/>
<path d="M7571 6396 c-8 -9 -10 -134 -9 -442 l3 -429 84 -3 c48 -2 89 2 94 7
7 7 10 71 8 170 -2 103 1 167 9 180 10 20 19 21 161 21 l149 0 11 -27 c6 -16
9 -91 8 -179 -1 -82 1 -155 5 -162 9 -15 162 -17 171 -2 3 5 6 202 6 436 0
339 -3 429 -13 435 -23 15 -144 10 -158 -6 -8 -10 -12 -56 -11 -148 1 -73 -3
-146 -8 -160 l-11 -27 -150 0 -150 0 -11 27 c-5 14 -9 87 -8 162 1 119 -1 136
-17 148 -24 18 -148 17 -163 -1z"/>
<path d="M8551 6401 c-12 -8 -12 -18 4 -67 10 -31 24 -69 31 -83 8 -14 14 -34
14 -44 0 -10 9 -35 20 -57 11 -22 20 -46 20 -55 0 -9 7 -30 17 -48 9 -18 20
-45 24 -62 4 -16 22 -68 39 -115 17 -47 35 -99 41 -117 5 -18 16 -45 24 -60 8
-15 15 -35 15 -44 0 -9 11 -42 25 -73 l25 -56 87 0 c49 0 93 4 99 8 15 10 44
67 44 87 0 9 9 33 20 55 11 22 20 47 20 56 0 9 7 30 15 47 15 34 35 88 65 177
10 30 30 87 45 125 15 39 30 84 34 100 4 17 15 44 23 60 8 17 18 45 22 64 3
19 14 43 23 53 13 15 15 23 7 36 -9 13 -29 18 -91 20 -92 3 -103 -3 -126 -70
-8 -24 -20 -59 -27 -78 -7 -19 -19 -60 -27 -90 -8 -30 -21 -69 -29 -87 -8 -17
-14 -39 -14 -50 0 -10 -7 -31 -16 -48 -8 -16 -20 -50 -25 -75 -5 -25 -21 -59
-34 -75 -21 -25 -26 -28 -35 -15 -5 8 -10 25 -10 36 0 12 -8 43 -19 70 -18 50
-35 95 -53 149 -24 71 -46 133 -62 180 -10 28 -22 66 -27 85 -13 55 -40 70
-123 70 -39 0 -77 -4 -85 -9z"/>
<path d="M9622 6402 c-10 -7 -13 -101 -13 -437 0 -240 4 -432 9 -437 5 -5 47
-8 93 -6 l84 3 3 429 c1 308 -1 433 -9 442 -13 16 -145 20 -167 6z"/>
<path d="M11998 6399 c-17 -9 -18 -41 -18 -438 0 -382 2 -430 16 -435 9 -3
154 -6 324 -6 170 0 315 3 324 6 23 9 23 139 0 148 -9 3 -116 6 -239 6 -183 0
-225 3 -232 14 -4 8 -6 59 -3 113 l5 98 204 3 c130 1 209 6 218 13 15 14 17
92 3 120 -10 18 -23 19 -208 19 -141 0 -201 3 -210 12 -7 7 -12 41 -12 85 0
63 3 74 21 83 13 8 90 11 223 9 112 -1 208 1 215 5 15 10 14 129 -1 144 -16
16 -604 17 -630 1z"/>
<path d="M13958 6399 c-24 -13 -26 -120 -3 -139 10 -8 49 -12 118 -11 77 1
107 -2 115 -12 8 -10 13 -120 14 -363 l3 -349 84 -3 c46 -2 88 1 94 7 5 5 8
147 8 349 -2 306 0 341 15 356 14 14 34 17 121 15 82 -2 107 1 114 12 13 21
11 123 -3 137 -16 16 -654 17 -680 1z"/>
<path d="M14942 6401 c-10 -6 -13 -96 -13 -435 0 -234 3 -431 6 -436 7 -11
124 -14 149 -4 14 5 16 37 16 251 l0 244 22 -3 c20 -3 41 -29 71 -88 12 -25
21 -39 86 -140 20 -30 43 -67 51 -82 30 -54 73 -124 97 -155 24 -33 25 -33
108 -33 46 0 86 4 90 10 3 5 6 201 6 436 0 337 -3 429 -13 436 -19 11 -116 10
-139 -2 -18 -10 -19 -24 -19 -260 0 -193 -3 -250 -12 -250 -20 0 -34 12 -52
45 -9 17 -27 47 -39 67 -12 20 -40 66 -62 103 -22 37 -48 79 -57 93 -10 15
-27 43 -38 62 -90 153 -86 150 -174 150 -39 0 -77 -4 -84 -9z"/>
<path d="M10153 6394 c-10 -5 -13 -101 -13 -435 l0 -429 23 -5 c12 -3 150 -4
307 -3 l285 3 0 75 0 75 -215 5 -215 5 -5 355 -5 355 -75 2 c-41 1 -81 -1 -87
-3z"/>
<path d="M11073 6393 c-10 -4 -13 -100 -13 -433 0 -381 2 -429 16 -434 9 -3
145 -6 303 -6 210 0 290 3 299 12 16 16 16 120 0 136 -9 9 -70 12 -214 12
-123 0 -205 4 -209 10 -3 5 -6 161 -5 346 0 239 -3 340 -11 350 -11 14 -137
19 -166 7z"/>
<path d="M12981 5686 c-16 -19 -21 -143 -7 -155 6 -5 22 -11 36 -13 34 -4 39
-41 9 -65 -60 -49 -72 -76 -50 -112 21 -33 114 23 147 89 19 37 23 61 24 138
0 125 -4 132 -84 132 -43 0 -67 -5 -75 -14z"/>
</g>
</svg>