<svg version="1.1" xmlns="http://www.w3.org/2000/svg" xmlns:xlink="http://www.w3.org/1999/xlink" x="0px" y="0px" style="enable-background:new 0 0 1000 500;" xml:space="preserve" viewBox="65.55 71.75 868.92 420.85">

<g id="OBJECTS">
	<g>
		<g style="opacity:0.7;">
			<g>
				<rect x="693.258" y="349.626" style="fill:#6A6A93;" width="62.078" height="68.124"/>
				<rect x="699.644" y="417.749" style="fill:#6A6A93;" width="46.547" height="4.111"/>
				<rect x="704.898" y="348.444" style="fill:#2F2F3F;" width="82.586" height="44.542"/>
				<rect x="792.683" y="347.501" style="fill:#2F2F3F;" width="106.762" height="20.265"/>
				<rect x="544.629" y="349.317" style="fill:#6A6A93;" width="52.195" height="65.154"/>
				<rect x="567.221" y="349.317" style="fill:#2F2F3F;" width="49.795" height="52.522"/>
				<rect x="615.904" y="349.317" style="fill:#2F2F3F;" width="60.629" height="56.03"/>
				<rect x="464.077" y="352.651" style="fill:#8484AF;" width="44.612" height="82.192"/>
				<rect x="478.478" y="349.317" style="fill:#6A6A93;" width="60.422" height="60.972"/>
				<rect x="406.552" y="384.058" style="fill:#9999C4;" width="26.45" height="52.463"/>
				<rect x="425.587" y="376.276" style="fill:#8484AF;" width="33.288" height="66.037"/>
				<rect x="354.371" y="372.768" style="fill:#6A6A93;" width="48.075" height="60.142"/>
				<rect x="414.77" y="372.768" style="fill:#6A6A93;" width="36.462" height="58.143"/>
				<rect x="381.841" y="349.626" style="fill:#6A6A93;" width="87.492" height="40.728"/>
				<rect x="317.233" y="447.083" style="fill:#8484AF;" width="8.545" height="15.503"/>
				<rect x="318.146" y="462.586" style="fill:#8484AF;" width="6.49" height="2.533"/>
				<rect x="319.31" y="465.118" style="fill:#8484AF;" width="4.16" height="6.866"/>
				<polygon style="fill:#8484AF;" points="320.684,471.985 321.506,480.339 322.517,471.596     "/>
				<polygon style="fill:#6A6A93;" points="314.088,455.845 334.222,436.521 324.155,436.521 324.155,428.352 310.644,428.352           "/>
				<polygon style="fill:#6A6A93;" points="287.066,428.352 287.066,436.615 299.252,454.652 299.252,421.861     "/>
				<rect x="281.828" y="348.445" style="fill:#4A4A66;" width="52.394" height="71.225"/>
				<rect x="287.066" y="419.671" style="fill:#4A4A66;" width="47.156" height="8.681"/>
				<rect x="296.073" y="348.445" style="fill:#4A4A66;" width="20.134" height="86.397"/>
				<rect x="299.252" y="434.843" style="fill:#8484AF;" width="14.836" height="26.915"/>
				<rect x="300.836" y="461.757" style="fill:#8484AF;" width="11.267" height="4.397"/>
				<rect x="302.858" y="466.155" style="fill:#8484AF;" width="7.223" height="11.921"/>
				<polygon style="fill:#8484AF;" points="305.243,478.076 306.67,492.579 308.426,477.4     "/>
				<polygon style="fill:#6A6A93;" points="324.155,436.521 334.222,436.521 334.222,348.445 322.433,348.445     "/>
				<polygon style="fill:#8484AF;" points="314.088,455.845 323.095,454.652 334.222,436.521 324.155,436.521     "/>
				<polygon style="fill:#4A4A66;" points="402.729,382.508 329.917,382.508 317.721,372.166 414.924,372.166     "/>
				<rect x="149.523" y="348.445" style="fill:#6A6A93;" width="27.728" height="59.035"/>
				<rect x="149.523" y="405.348" style="fill:#6A6A93;" width="7.758" height="2.91"/>
				<rect x="169.493" y="405.348" style="fill:#6A6A93;" width="7.758" height="2.91"/>
				<rect x="157.281" y="392.756" style="fill:#8484AF;" width="12.213" height="12.591"/>
				<rect x="157.281" y="377.762" style="fill:#8484AF;" width="12.213" height="12.591"/>
				<rect x="209.441" y="348.445" style="fill:#6A6A93;" width="62.638" height="41.266"/>
				<polygon style="fill:#4A4A66;" points="229.655,381.386 189.227,381.386 149.523,348.445 229.655,348.445     "/>
				<rect x="229.655" y="348.445" style="fill:#4A4A66;" width="20.214" height="24.323"/>
				<polygon style="fill:#6A6A93;" points="267.196,393.488 215.056,393.488 217.783,389.711 264.469,389.711     "/>
				<rect x="100.554" y="348.445" style="fill:#4A4A66;" width="99.609" height="22.064"/>
				<rect x="226.31" y="389.711" style="fill:#6A6A93;" width="11.809" height="6.091"/>
				<g>
					<rect x="226.972" y="363.163" style="fill:#6A6A93;" width="2.684" height="4.166"/>
					<rect x="210.247" y="363.163" style="fill:#6A6A93;" width="2.684" height="4.166"/>
					<rect x="193.523" y="363.163" style="fill:#6A6A93;" width="2.684" height="4.166"/>
					<rect x="176.798" y="363.163" style="fill:#6A6A93;" width="2.684" height="4.166"/>
					<rect x="160.073" y="363.163" style="fill:#6A6A93;" width="2.684" height="4.166"/>
					<rect x="143.348" y="363.163" style="fill:#6A6A93;" width="2.683" height="4.166"/>
					<rect x="126.623" y="363.163" style="fill:#6A6A93;" width="2.684" height="4.166"/>
					<rect x="109.899" y="363.163" style="fill:#6A6A93;" width="2.684" height="4.166"/>
				</g>
				<g>
					<rect x="226.972" y="355.377" style="fill:#6A6A93;" width="2.684" height="4.166"/>
					<rect x="210.247" y="355.377" style="fill:#6A6A93;" width="2.684" height="4.166"/>
					<rect x="193.523" y="355.377" style="fill:#6A6A93;" width="2.684" height="4.166"/>
					<rect x="176.798" y="355.377" style="fill:#6A6A93;" width="2.684" height="4.166"/>
					<rect x="160.073" y="355.377" style="fill:#6A6A93;" width="2.684" height="4.166"/>
					<rect x="143.348" y="355.377" style="fill:#6A6A93;" width="2.683" height="4.166"/>
					<rect x="126.623" y="355.377" style="fill:#6A6A93;" width="2.684" height="4.166"/>
					<rect x="109.899" y="355.377" style="fill:#6A6A93;" width="2.684" height="4.166"/>
				</g>
				<rect x="261.89" y="348.444" style="fill:#4A4A66;" width="31.269" height="19.381"/>
				<rect x="305.243" y="348.445" style="fill:#2F2F3F;" width="122.16" height="24.323"/>
				<polygon style="fill:#2F2F3F;" points="334.04,375.477 309.374,375.477 305.243,372.768 338.172,372.768     "/>
				<polygon style="fill:#2F2F3F;" points="372.34,375.477 347.673,375.477 343.542,372.768 376.471,372.768     "/>
				<polygon style="fill:#2F2F3F;" points="410.639,375.477 385.973,375.477 381.841,372.768 414.77,372.768     "/>
				<rect x="281.736" y="349.626" width="100.105" height="12.903"/>
				<polygon style="fill:#8484AF;" points="354.371,432.91 364.299,442.313 393.563,442.313 402.446,432.91     "/>
				<polygon style="fill:#6A6A93;" points="383.764,442.313 385.906,432.91 402.446,432.91 393.563,442.313     "/>
				<polygon style="fill:#6A6A93;" points="375.198,442.313 370.201,432.91 354.371,432.91 364.299,442.313     "/>
				<polygon style="fill:#8484AF;" points="458.875,442.313 458.875,463.956 454.76,439.704     "/>
				<rect x="444.766" y="348.444" style="fill:#2F2F3F;" width="75.84" height="35.614"/>
				<rect x="398.306" y="349.015" width="29.201" height="18.81"/>
				<rect x="436.295" y="349.015" width="75.577" height="17.236"/>
				<rect x="742.705" y="347.501" width="35.284" height="18.199"/>
				<rect x="787.483" y="347.501" width="57.09" height="12.903"/>
				<rect x="691.149" y="361.941" width="16.99" height="13.535"/>
				<rect x="541.752" y="365.937" width="16.99" height="10.699"/>
				<rect x="478.478" y="361.941" width="15.604" height="8.049"/>
				<rect x="544.629" y="414.471" style="fill:#6A6A93;" width="38.134" height="3.278"/>
				<polygon style="fill:#9999C4;" points="464.077,434.843 464.077,439.704 474.744,443.577 497.034,439.21 497.034,434.843           "/>
				<g style="opacity:0.3;">
					<rect x="576.575" y="361.941" style="opacity:0.6;fill:#6A6A93;" width="1.403" height="39.898"/>
					<rect x="586.622" y="361.941" style="opacity:0.6;fill:#6A6A93;" width="1.403" height="39.898"/>
					<rect x="596.668" y="361.941" style="opacity:0.6;fill:#6A6A93;" width="1.403" height="39.898"/>
					<rect x="606.714" y="361.941" style="opacity:0.6;fill:#6A6A93;" width="1.403" height="39.898"/>
					<rect x="624.359" y="366.492" style="opacity:0.6;fill:#6A6A93;" width="1.403" height="39.898"/>
					<rect x="636.254" y="366.492" style="opacity:0.6;fill:#6A6A93;" width="1.403" height="39.898"/>
					<rect x="648.149" y="366.492" style="opacity:0.6;fill:#6A6A93;" width="1.403" height="39.898"/>
					<rect x="660.043" y="366.492" style="opacity:0.6;fill:#6A6A93;" width="1.403" height="39.898"/>
					<rect x="671.938" y="366.492" style="opacity:0.6;fill:#6A6A93;" width="1.403" height="39.898"/>
				</g>
				<rect x="567.221" y="401.839" style="fill:#6A6A93;" width="48.683" height="2.086"/>
				<rect x="615.904" y="405.348" style="fill:#6A6A93;" width="60.629" height="2.086"/>
				<rect x="529.448" y="349.626" width="53.314" height="22.54"/>
				<rect x="582.763" y="349.626" width="28.122" height="27.737"/>
				<rect x="637.807" y="349.626" width="93.767" height="17.6"/>
				<rect x="624.359" y="349.317" width="37.496" height="21.192"/>
			</g>
			<g>
				<path d="M65.565,358.565c0,0,116.174,1.823,233.973-10.025c0,0-77.443,13.975-233.973,15.494V358.565z"/>
				<path d="M65.565,354.241c0,0,116.174,1.037,233.973-5.701c0,0-77.443,7.947-233.973,8.811V354.241z"/>
				<polygon points="97.776,355.999 95.404,355.637 78.447,359.052     "/>
				<polygon points="65.565,355.998 67.328,355.637 79.931,359.052     "/>
				<polygon points="119.438,355.999 117.066,355.637 100.109,359.052     "/>
				<polygon points="87.227,355.998 88.99,355.637 101.593,359.052     "/>
				<polygon points="141.1,355.999 138.728,355.637 121.771,359.052     "/>
				<polygon points="108.889,355.998 110.651,355.637 123.255,359.052     "/>
				<polygon points="163.646,355.405 161.275,355.043 144.317,358.458     "/>
				<polygon points="131.435,355.404 133.198,355.043 145.801,358.457     "/>
				<polygon points="186.428,354.653 184.056,354.291 167.098,357.706     "/>
				<polygon points="154.216,354.653 155.979,354.291 168.582,357.706     "/>
				<polygon points="204.371,353.999 202.392,353.697 188.249,356.545     "/>
				<polygon points="177.506,353.999 178.976,353.697 189.487,356.545     "/>
				<polygon points="224.268,353.38 222.344,353.166 209.289,356.399     "/>
				<polygon points="198.715,354.375 200.072,354.034 210.466,356.353     "/>
				<polygon points="242.14,352.098 240.463,351.885 229.079,355.117     "/>
				<polygon points="219.859,353.094 221.041,352.752 230.105,355.072     "/>
				<polygon points="157.113,381.087 134.566,377.07 150.579,382.039     "/>
				<polygon points="168.386,378.729 145.84,374.713 161.853,379.682     "/>
				<polygon points="180.623,376.831 158.076,372.814 174.089,377.783     "/>
				<polygon points="190.933,375.324 168.386,371.308 184.399,376.277     "/>
				<polygon points="196.377,372.85 175.892,369.201 190.441,373.716     "/>
				<polygon points="203.32,370.526 184.487,367.171 197.862,371.321     "/>
				<polygon points="208.129,368.625 191.785,365.713 203.393,369.315     "/>
				<polygon points="212.042,366.906 197.663,364.345 207.875,367.514     "/>
				<polygon points="215.617,364.871 203.772,362.76 212.184,365.371     "/>
				<polygon points="219.355,362.954 209.091,361.125 216.381,363.387     "/>
				<polygon points="138.618,381.633 119.785,378.278 133.161,382.429     "/>
				<g>
					<polygon points="65.565,366.918 70.221,362.435 65.565,368.591      "/>
					<path d="M229.654,354.67c-4.596,1.681-9.139,3.254-13.636,4.747l0.003,0.007l-0.046,0.007c-1.551,0.515-3.096,1.02-4.635,1.513       l0.007,0.014l-0.097,0.014c-1.826,0.585-3.643,1.155-5.45,1.71l0.001,0.008l-0.043,0.005c-2.174,0.667-4.335,1.313-6.483,1.939       l0.001,0.008l-0.037,0.003c-4.132,1.203-8.22,2.337-12.251,3.392v0.002l-0.008,0c-2.584,0.676-5.141,1.315-7.681,1.933v0.008       l-0.034,0.001c-46.888,11.397-86.269,13.076-113.7,11.966v-3.085c1.563,0.093,3.127,0.177,4.692,0.244l4.085-1.541       l16.163-15.744l-12.06,15.625l0.039,1.897c3.212,0.052,6.42,0.06,9.619,0.02l4.844-1.862l16.578-16.197l-12.472,16.075       l-0.009,1.762c3.417-0.127,6.815-0.303,10.193-0.518l4.367-1.679l16.578-16.198L115.71,376.82l0.224,1.155       c2.713-0.23,5.406-0.484,8.078-0.761l3.514-1.351l16.083-15.714l-12.1,15.595l0.341,0.589c2.735-0.332,5.441-0.684,8.115-1.055       l2.995-1.151l15.239-14.889l-11.464,14.777l0.174,0.252c1.823-0.279,3.621-0.569,5.407-0.862l2.933-1.127L169.35,358.5       l-10.609,13.674l0.109,0.116c1.426-0.253,2.835-0.511,4.233-0.77l3.089-1.187l12.958-12.661l-9.749,12.566l0.07,0.062       c1.417-0.281,2.812-0.565,4.193-0.851l2.756-1.324l11.741-11.472l-8.833,11.385l-0.001,0.211       c0.96-0.209,1.908-0.418,2.848-0.628l2.296-1.19l10.277-10.041l-7.732,9.966l-0.001,0.164c1.041-0.242,2.068-0.483,3.079-0.724       l10.158-9.925l-7.134,9.196c0.879-0.215,1.749-0.429,2.602-0.641l0.934-0.316l8.709-8.327l-5.716,7.648       c0.951-0.245,1.883-0.487,2.796-0.727l1.347-0.646l6.552-6.264l-4.486,6.003c0.742-0.2,1.464-0.397,2.176-0.593l1.371-0.697       l4.839-4.471l-2.997,4.275c0.741-0.209,1.462-0.413,2.164-0.614l1.23-0.594l3.453-3.191l-2.136,3.047       C224.654,356.407,229.654,354.67,229.654,354.67z"/>
				</g>
				<path d="M223.457,360.256l0.014,0.009l-0.034,0.007c-0.741,0.575-1.49,1.139-2.251,1.69l0.027,0.017l-0.072,0.015      c-0.903,0.652-1.818,1.288-2.747,1.906l0.012,0.009l-0.033,0.005c-1.117,0.743-2.252,1.462-3.404,2.157l0.012,0.009      l-0.031,0.002c-2.217,1.336-4.49,2.594-6.824,3.759l0.003,0.002l-0.008,0c-1.496,0.747-3.019,1.452-4.557,2.132l0.011,0.009      l-0.031,0c-53.662,23.706-131.64,7.477-137.979,6.098v-3.613c2.573,0.531,5.122,1.039,7.631,1.504l2.084-1.382l-4.895-13.356      l8.661,13.318l4.944,3.259c3.207,0.495,6.354,0.932,9.449,1.32l1.434-1.262l-6.342-16.302l10.098,16.24l2.991,2.241      c3.724,0.371,7.372,0.675,10.923,0.9l1.685-1.73l-7.207-18.061l10.956,17.985l2.766,2.206c3.143,0.109,6.219,0.166,9.218,0.169      l1.949-2.092l-7.463-18.582l11.21,18.502l2.525,2.048c3.082-0.096,6.074-0.25,8.992-0.449l1.757-1.886l-7.463-18.582      l11.209,18.502l1.876,1.347c2.261-0.227,4.468-0.481,6.622-0.763l1.413-1.517l-7.241-18.028l10.875,17.95l1.172,0.689      c2.135-0.344,4.213-0.713,6.234-1.105l1.205-1.293l-6.861-17.082l10.305,17.008l0.53,0.296c1.339-0.297,2.64-0.607,3.924-0.921      l1.18-1.267l-6.349-15.807l9.536,15.739l0.272,0.137c0.998-0.273,1.974-0.551,2.936-0.832l1.243-1.334l-5.835-14.525      l8.763,14.463l0.156,0.073c0.95-0.306,1.873-0.615,2.782-0.926l0.728-1.498l-5.286-13.161l7.939,13.104l0.302,0.245      c0.618-0.228,1.221-0.457,1.818-0.687l0.482-1.349l-4.627-11.52l6.949,11.47l0.235,0.191c0.646-0.266,1.28-0.531,1.899-0.796      l-4.573-11.386l6.412,10.584c0.531-0.237,1.054-0.472,1.563-0.707l0.437-0.354l-3.659-9.55l5.542,8.806      c0.557-0.27,1.099-0.538,1.626-0.803l0.357-0.731l-2.753-7.185l4.35,6.912c0.42-0.222,0.827-0.44,1.226-0.656l0.307-0.79      l-1.809-5.125l3.286,4.925c0.408-0.231,0.802-0.459,1.184-0.682l0.321-0.672l-1.291-3.658l2.342,3.511      c4.659-2.833,6.936-4.777,6.936-4.777C227.681,356.827,225.605,358.587,223.457,360.256z"/>
			</g>
		</g>
		
		<rect x="65.565" y="350.005" style="fill:url(#SVGID_1_);" width="868.87" height="142.574"/>
		<g>
			<rect x="693.258" y="216.828" style="fill:#6A6A93;" width="62.078" height="132.077"/>
			<rect x="699.644" y="208.857" style="fill:#6A6A93;" width="46.547" height="7.971"/>
			<rect x="704.898" y="264.838" style="fill:#2F2F3F;" width="82.586" height="86.357"/>
			<rect x="792.683" y="313.734" style="fill:#2F2F3F;" width="106.762" height="39.289"/>
			<rect x="544.629" y="223.183" style="fill:#6A6A93;" width="52.195" height="126.319"/>
			<rect x="567.221" y="247.674" style="fill:#2F2F3F;" width="49.795" height="101.828"/>
			<rect x="615.904" y="240.872" style="fill:#2F2F3F;" width="60.629" height="108.63"/>
			<rect x="464.077" y="183.688" style="fill:#8484AF;" width="44.612" height="159.352"/>
			<rect x="478.478" y="231.291" style="fill:#6A6A93;" width="60.422" height="118.211"/>
			<rect x="406.552" y="180.435" style="fill:#9999C4;" width="26.45" height="101.713"/>
			<rect x="425.587" y="169.203" style="fill:#8484AF;" width="33.288" height="128.032"/>
			<rect x="354.371" y="187.435" style="fill:#6A6A93;" width="48.075" height="116.602"/>
			<rect x="414.77" y="191.311" style="fill:#6A6A93;" width="36.462" height="112.726"/>
			<rect x="381.841" y="269.942" style="fill:#6A6A93;" width="87.492" height="78.962"/>
			<rect x="317.233" y="129.9" style="fill:#8484AF;" width="8.545" height="30.057"/>
			<rect x="318.146" y="124.99" style="fill:#8484AF;" width="6.49" height="4.911"/>
			<rect x="319.31" y="111.677" style="fill:#8484AF;" width="4.16" height="13.313"/>
			<polygon style="fill:#8484AF;" points="320.684,111.677 321.506,95.481 322.517,112.431    "/>
			<polygon style="fill:#6A6A93;" points="314.088,142.97 334.222,180.435 324.155,180.435 324.155,196.272 310.644,196.272    "/>
			<polygon style="fill:#6A6A93;" points="287.066,196.272 287.066,180.252 299.252,145.282 299.252,208.857    "/>
			<rect x="281.828" y="213.103" style="fill:#4A4A66;" width="52.394" height="138.09"/>
			<rect x="287.066" y="196.272" style="fill:#4A4A66;" width="47.156" height="16.83"/>
			<rect x="296.073" y="183.688" style="fill:#4A4A66;" width="20.134" height="167.505"/>
			<rect x="299.252" y="131.506" style="fill:#8484AF;" width="14.836" height="52.182"/>
			<rect x="300.836" y="122.98" style="fill:#8484AF;" width="11.267" height="8.526"/>
			<rect x="302.858" y="99.868" style="fill:#8484AF;" width="7.223" height="23.112"/>
			<polygon style="fill:#8484AF;" points="305.243,99.868 306.67,71.75 308.426,101.178    "/>
			<polygon style="fill:#6A6A93;" points="324.155,180.435 334.222,180.435 334.222,351.193 322.433,351.193    "/>
			<polygon style="fill:#8484AF;" points="314.088,142.97 323.095,145.282 334.222,180.435 324.155,180.435    "/>
			<polygon style="fill:#4A4A66;" points="402.729,285.153 329.917,285.153 317.721,305.204 414.924,305.204    "/>
			<rect x="149.523" y="236.736" style="fill:#6A6A93;" width="27.728" height="114.457"/>
			<rect x="149.523" y="235.23" style="fill:#6A6A93;" width="7.758" height="5.642"/>
			<rect x="169.493" y="235.23" style="fill:#6A6A93;" width="7.758" height="5.642"/>
			<rect x="157.281" y="240.872" style="fill:#8484AF;" width="12.213" height="24.412"/>
			<rect x="157.281" y="269.942" style="fill:#8484AF;" width="12.213" height="24.412"/>
			<rect x="209.441" y="271.188" style="fill:#6A6A93;" width="62.638" height="80.005"/>
			<polygon style="fill:#4A4A66;" points="229.655,287.329 189.227,287.329 149.523,351.193 229.655,351.193    "/>
			<rect x="229.655" y="304.037" style="fill:#4A4A66;" width="20.214" height="47.156"/>
			<polygon style="fill:#6A6A93;" points="267.196,263.865 215.056,263.865 217.783,271.188 264.469,271.188    "/>
			<rect x="100.554" y="308.415" style="fill:#4A4A66;" width="99.609" height="42.778"/>
			<rect x="226.31" y="259.379" style="fill:#6A6A93;" width="11.809" height="11.809"/>
			<g>
				<rect x="226.972" y="314.582" style="fill:#6A6A93;" width="2.684" height="8.077"/>
				<rect x="210.247" y="314.582" style="fill:#6A6A93;" width="2.684" height="8.077"/>
				<rect x="193.523" y="314.582" style="fill:#6A6A93;" width="2.684" height="8.077"/>
				<rect x="176.798" y="314.582" style="fill:#6A6A93;" width="2.684" height="8.077"/>
				<rect x="160.073" y="314.582" style="fill:#6A6A93;" width="2.684" height="8.077"/>
				<rect x="143.348" y="314.582" style="fill:#6A6A93;" width="2.683" height="8.077"/>
				<rect x="126.623" y="314.582" style="fill:#6A6A93;" width="2.684" height="8.077"/>
				<rect x="109.899" y="314.582" style="fill:#6A6A93;" width="2.684" height="8.077"/>
			</g>
			<g>
				<rect x="226.972" y="329.677" style="fill:#6A6A93;" width="2.684" height="8.077"/>
				<rect x="210.247" y="329.677" style="fill:#6A6A93;" width="2.684" height="8.077"/>
				<rect x="193.523" y="329.677" style="fill:#6A6A93;" width="2.684" height="8.077"/>
				<rect x="176.798" y="329.677" style="fill:#6A6A93;" width="2.684" height="8.077"/>
				<rect x="160.073" y="329.677" style="fill:#6A6A93;" width="2.684" height="8.077"/>
				<rect x="143.348" y="329.677" style="fill:#6A6A93;" width="2.683" height="8.077"/>
				<rect x="126.623" y="329.677" style="fill:#6A6A93;" width="2.684" height="8.077"/>
				<rect x="109.899" y="329.677" style="fill:#6A6A93;" width="2.684" height="8.077"/>
			</g>
			<rect x="261.89" y="313.62" style="fill:#4A4A66;" width="31.269" height="37.575"/>
			<rect x="305.243" y="304.037" style="fill:#2F2F3F;" width="122.16" height="47.156"/>
			<polygon style="fill:#2F2F3F;" points="334.04,298.785 309.374,298.785 305.243,304.037 338.172,304.037    "/>
			<polygon style="fill:#2F2F3F;" points="372.34,298.785 347.673,298.785 343.542,304.037 376.471,304.037    "/>
			<polygon style="fill:#2F2F3F;" points="410.639,298.785 385.973,298.785 381.841,304.037 414.77,304.037    "/>
			<rect x="281.736" y="323.889" width="100.105" height="25.015"/>
			<polygon style="fill:#8484AF;" points="354.371,187.435 364.299,169.203 393.563,169.203 402.446,187.435    "/>
			<polygon style="fill:#6A6A93;" points="383.764,169.203 385.906,187.435 402.446,187.435 393.563,169.203    "/>
			<polygon style="fill:#6A6A93;" points="375.198,169.203 370.201,187.435 354.371,187.435 364.299,169.203    "/>
			<polygon style="fill:#8484AF;" points="458.875,169.203 458.875,127.243 454.76,174.262    "/>
			<rect x="444.766" y="282.148" style="fill:#2F2F3F;" width="75.84" height="69.047"/>
			<rect x="398.306" y="313.62" width="29.201" height="36.468"/>
			<rect x="436.295" y="316.672" width="75.577" height="33.417"/>
			<rect x="742.705" y="317.739" width="35.284" height="35.284"/>
			<rect x="787.483" y="328.008" width="57.09" height="25.015"/>
			<rect x="691.149" y="298.785" width="16.99" height="26.242"/>
			<rect x="541.752" y="296.536" width="16.99" height="20.744"/>
			<rect x="478.478" y="309.423" width="15.604" height="15.604"/>
			<rect x="544.629" y="216.828" style="fill:#6A6A93;" width="38.134" height="6.356"/>
			<polygon style="fill:#9999C4;" points="464.077,183.688 464.077,174.262 474.744,166.755 497.034,175.221 497.034,183.688    "/>
			<g style="opacity:0.3;">
				<rect x="576.575" y="247.674" style="opacity:0.6;fill:#6A6A93;" width="1.403" height="77.354"/>
				<rect x="586.622" y="247.674" style="opacity:0.6;fill:#6A6A93;" width="1.403" height="77.354"/>
				<rect x="596.668" y="247.674" style="opacity:0.6;fill:#6A6A93;" width="1.403" height="77.354"/>
				<rect x="606.714" y="247.674" style="opacity:0.6;fill:#6A6A93;" width="1.403" height="77.354"/>
				<rect x="624.359" y="238.85" style="opacity:0.6;fill:#6A6A93;" width="1.403" height="77.354"/>
				<rect x="636.254" y="238.85" style="opacity:0.6;fill:#6A6A93;" width="1.403" height="77.354"/>
				<rect x="648.149" y="238.85" style="opacity:0.6;fill:#6A6A93;" width="1.403" height="77.354"/>
				<rect x="660.043" y="238.85" style="opacity:0.6;fill:#6A6A93;" width="1.403" height="77.354"/>
				<rect x="671.938" y="238.85" style="opacity:0.6;fill:#6A6A93;" width="1.403" height="77.354"/>
			</g>
			<rect x="567.221" y="243.629" style="fill:#6A6A93;" width="48.683" height="4.045"/>
			<rect x="615.904" y="236.827" style="fill:#6A6A93;" width="60.629" height="4.045"/>
			<rect x="529.448" y="305.204" width="53.314" height="43.7"/>
			<rect x="582.763" y="295.128" width="28.122" height="53.776"/>
			<rect x="637.807" y="314.782" width="93.767" height="34.122"/>
			<rect x="624.359" y="308.415" width="37.496" height="41.087"/>
		</g>
		<g>
			<path d="M65.565,331.573c0,0,116.174-3.534,233.973,19.437c0,0-77.443-27.094-233.973-30.039V331.573z"/>
			<path d="M65.565,339.956c0,0,116.174-2.01,233.973,11.054c0,0-77.443-15.408-233.973-17.083V339.956z"/>
			<polygon points="97.776,336.549 95.404,337.25 78.447,330.63    "/>
			<polygon points="65.565,336.549 67.328,337.25 79.931,330.63    "/>
			<polygon points="119.438,336.549 117.066,337.25 100.109,330.63    "/>
			<polygon points="87.227,336.549 88.99,337.25 101.593,330.63    "/>
			<polygon points="141.1,336.549 138.728,337.25 121.771,330.63    "/>
			<polygon points="108.889,336.549 110.651,337.25 123.255,330.63    "/>
			<polygon points="163.646,337.7 161.275,338.402 144.317,331.781    "/>
			<polygon points="131.435,337.701 133.198,338.402 145.801,331.781    "/>
			<polygon points="186.428,339.158 184.056,339.859 167.098,333.238    "/>
			<polygon points="154.216,339.158 155.979,339.859 168.582,333.239    "/>
			<polygon points="204.371,340.426 202.392,341.011 188.249,335.489    "/>
			<polygon points="177.506,340.426 178.976,341.011 189.487,335.49    "/>
			<polygon points="224.268,341.626 222.344,342.04 209.289,335.772    "/>
			<polygon points="198.715,339.696 200.072,340.358 210.466,335.861    "/>
			<polygon points="242.14,344.111 240.463,344.525 229.079,338.257    "/>
			<polygon points="219.859,342.181 221.041,342.843 230.105,338.346    "/>
			<polygon points="157.113,287.908 134.566,295.695 150.579,286.061    "/>
			<polygon points="168.386,292.479 145.84,300.266 161.853,290.632    "/>
			<polygon points="180.623,296.16 158.076,303.947 174.089,294.314    "/>
			<polygon points="190.933,299.08 168.386,306.868 184.399,297.234    "/>
			<polygon points="196.377,303.877 175.892,310.952 190.441,302.199    "/>
			<polygon points="203.32,308.383 184.487,314.888 197.862,306.841    "/>
			<polygon points="208.129,312.07 191.785,317.715 203.393,310.731    "/>
			<polygon points="212.042,315.401 197.663,320.367 207.875,314.223    "/>
			<polygon points="215.617,319.348 203.772,323.439 212.184,318.378    "/>
			<polygon points="219.355,323.064 209.091,326.609 216.381,322.224    "/>
			<polygon points="138.618,286.849 119.785,293.353 133.161,285.306    "/>
			<g>
				<polygon points="65.565,315.378 70.221,324.069 65.565,312.135     "/>
				<path d="M229.654,339.125c-4.596-3.259-9.139-6.309-13.636-9.204l0.003-0.014l-0.046-0.013      c-1.551-0.998-3.096-1.978-4.635-2.934l0.007-0.028l-0.097-0.028c-1.826-1.134-3.643-2.239-5.45-3.315l0.001-0.015l-0.043-0.01      c-2.174-1.294-4.335-2.546-6.483-3.759l0.001-0.015l-0.037-0.005c-4.132-2.332-8.22-4.531-12.251-6.576v-0.004l-0.008-0.001      c-2.584-1.31-5.141-2.55-7.681-3.748v-0.015l-0.034-0.001c-46.888-22.096-86.269-25.351-113.7-23.199v5.982      c1.563-0.18,3.127-0.344,4.692-0.473l4.085,2.988l16.163,30.524l-12.06-30.294l0.039-3.677c3.212-0.101,6.42-0.116,9.619-0.04      l4.844,3.61l16.578,31.403L97.053,295.1l-0.009-3.416c3.417,0.246,6.815,0.588,10.193,1.004l4.367,3.255l16.578,31.403      L115.71,296.18l0.224-2.24c2.713,0.446,5.406,0.939,8.078,1.476l3.514,2.619l16.083,30.466l-12.1-30.236l0.341-1.141      c2.735,0.643,5.441,1.326,8.115,2.046l2.995,2.232l15.239,28.867l-11.464-28.65l0.174-0.489      c1.823,0.542,3.621,1.103,5.407,1.672l2.933,2.186L169.35,331.7l-10.609-26.511l0.109-0.226c1.426,0.491,2.835,0.99,4.233,1.494      l3.089,2.302l12.958,24.547l-9.749-24.362l0.07-0.12c1.417,0.545,2.812,1.096,4.193,1.649l2.756,2.567l11.741,22.241      l-8.833-22.073l-0.001-0.409c0.96,0.405,1.908,0.811,2.848,1.217l2.296,2.307l10.277,19.468l-7.732-19.321l-0.001-0.319      c1.041,0.469,2.068,0.937,3.079,1.404l10.158,19.242l-7.134-17.828c0.879,0.416,1.749,0.831,2.602,1.244l0.934,0.613      l8.709,16.145l-5.716-14.828c0.951,0.474,1.883,0.944,2.796,1.409l1.347,1.253l6.552,12.145l-4.486-11.639      c0.742,0.388,1.464,0.77,2.176,1.149l1.371,1.352l4.839,8.669l-2.997-8.289c0.741,0.405,1.462,0.802,2.164,1.191l1.23,1.151      l3.453,6.186l-2.136-5.908C224.654,335.756,229.654,339.125,229.654,339.125z"/>
			</g>
			<path d="M223.457,328.295l0.014-0.016l-0.034-0.014c-0.741-1.115-1.49-2.209-2.251-3.276l0.027-0.033l-0.072-0.03     c-0.903-1.265-1.818-2.496-2.747-3.695l0.012-0.017l-0.033-0.01c-1.117-1.441-2.252-2.834-3.404-4.181l0.012-0.017l-0.031-0.004     c-2.217-2.591-4.49-5.029-6.824-7.288l0.003-0.005l-0.008,0c-1.496-1.448-3.019-2.815-4.557-4.133l0.011-0.017l-0.031,0     c-53.662-45.961-131.64-14.495-137.979-11.823v7.004c2.573-1.03,5.122-2.014,7.631-2.917l2.084,2.679l-4.895,25.895l8.661-25.821     l4.944-6.319c3.207-0.96,6.354-1.806,9.449-2.56l1.434,2.447l-6.342,31.605l10.098-31.485l2.991-4.345     c3.724-0.719,7.372-1.309,10.923-1.746l1.685,3.355l-7.207,35.017l10.956-34.87l2.766-4.276c3.143-0.211,6.219-0.322,9.218-0.327     l1.949,4.056l-7.463,36.027l11.21-35.871l2.525-3.971c3.082,0.186,6.074,0.485,8.992,0.87l1.757,3.657l-7.463,36.027     l11.209-35.871l1.876-2.611c2.261,0.44,4.468,0.933,6.622,1.48l1.413,2.942l-7.241,34.952l10.875-34.801l1.172-1.337     c2.135,0.668,4.213,1.383,6.234,2.142l1.205,2.508l-6.861,33.118l10.305-32.975l0.53-0.574c1.339,0.577,2.64,1.176,3.924,1.786     l1.18,2.456l-6.349,30.646l9.536-30.514l0.272-0.266c0.998,0.529,1.974,1.068,2.936,1.613l1.243,2.586l-5.835,28.162l8.763-28.04     l0.156-0.141c0.95,0.592,1.873,1.192,2.782,1.795l0.728,2.904l-5.286,25.516l7.939-25.406l0.302-0.475     c0.618,0.443,1.221,0.887,1.818,1.332l0.482,2.615l-4.627,22.335l6.949-22.238l0.235-0.37c0.646,0.515,1.28,1.029,1.899,1.543     l-4.573,22.075l6.412-20.52c0.531,0.458,1.054,0.915,1.563,1.37l0.437,0.686l-3.659,18.516l5.542-17.073     c0.557,0.523,1.099,1.042,1.626,1.556l0.357,1.418l-2.753,13.929l4.35-13.401c0.42,0.43,0.827,0.853,1.226,1.273l0.307,1.531     l-1.809,9.937l3.286-9.549c0.408,0.449,0.802,0.889,1.184,1.322l0.321,1.303l-1.291,7.092l2.342-6.807     c4.659,5.492,6.936,9.263,6.936,9.263C227.681,334.944,225.605,331.53,223.457,328.295z"/>
		</g>
		<g>
			<path d="M65.565,352.623l27.152-1.027l27.152-0.775l54.304-1.531l54.304-1.123c18.102-0.372,36.203-0.56,54.304-0.849     l27.152-0.398l27.152-0.254l54.304-0.481L500,345.827l108.609,0.375l54.304,0.478l27.152,0.261l27.152,0.395     c18.102,0.29,36.203,0.468,54.304,0.85l54.304,1.122l54.304,1.522l27.152,0.771l27.152,1.021v0.8L500,353.822l-434.435-0.399     V352.623z"/>
		</g>
	</g>
</g>
</svg>