<svg version="1.1" xmlns="http://www.w3.org/2000/svg" xmlns:xlink="http://www.w3.org/1999/xlink" x="0px" y="0px" style="enable-background:new 0 0 1000 500;" xml:space="preserve" viewBox="65.55 71.75 868.92 281.5">

<g id="OBJECTS">
	<g>
		<g>
			<rect x="693.258" y="216.828" style="fill:#6A6A93;" width="62.078" height="132.077"/>
			<rect x="699.644" y="208.857" style="fill:#6A6A93;" width="46.547" height="7.971"/>
			<rect x="704.898" y="264.838" style="fill:#2F2F3F;" width="82.586" height="86.357"/>
			<rect x="792.683" y="313.734" style="fill:#2F2F3F;" width="106.762" height="39.289"/>
			<rect x="544.629" y="223.183" style="fill:#6A6A93;" width="52.195" height="126.319"/>
			<rect x="567.221" y="247.674" style="fill:#2F2F3F;" width="49.795" height="101.828"/>
			<rect x="615.904" y="240.872" style="fill:#2F2F3F;" width="60.629" height="108.63"/>
			<rect x="464.077" y="183.688" style="fill:#8484AF;" width="44.612" height="159.352"/>
			<rect x="478.478" y="231.291" style="fill:#6A6A93;" width="60.422" height="118.211"/>
			<rect x="406.552" y="180.435" style="fill:#9999C4;" width="26.45" height="101.713"/>
			<rect x="425.587" y="169.203" style="fill:#8484AF;" width="33.288" height="128.032"/>
			<rect x="354.371" y="187.435" style="fill:#6A6A93;" width="48.075" height="116.602"/>
			<rect x="414.77" y="191.311" style="fill:#6A6A93;" width="36.462" height="112.726"/>
			<rect x="381.841" y="269.942" style="fill:#6A6A93;" width="87.492" height="78.962"/>
			<rect x="317.233" y="129.9" style="fill:#8484AF;" width="8.545" height="30.057"/>
			<rect x="318.146" y="124.99" style="fill:#8484AF;" width="6.49" height="4.911"/>
			<rect x="319.31" y="111.677" style="fill:#8484AF;" width="4.16" height="13.313"/>
			<polygon style="fill:#8484AF;" points="320.684,111.677 321.506,95.481 322.517,112.431    "/>
			<polygon style="fill:#6A6A93;" points="314.088,142.97 334.222,180.435 324.155,180.435 324.155,196.272 310.644,196.272    "/>
			<polygon style="fill:#6A6A93;" points="287.066,196.272 287.066,180.252 299.252,145.282 299.252,208.857    "/>
			<rect x="281.828" y="213.103" style="fill:#4A4A66;" width="52.394" height="138.09"/>
			<rect x="287.066" y="196.272" style="fill:#4A4A66;" width="47.156" height="16.83"/>
			<rect x="296.073" y="183.688" style="fill:#4A4A66;" width="20.134" height="167.505"/>
			<rect x="299.252" y="131.506" style="fill:#8484AF;" width="14.836" height="52.182"/>
			<rect x="300.836" y="122.98" style="fill:#8484AF;" width="11.267" height="8.526"/>
			<rect x="302.858" y="99.868" style="fill:#8484AF;" width="7.223" height="23.112"/>
			<polygon style="fill:#8484AF;" points="305.243,99.868 306.67,71.75 308.426,101.178    "/>
			<polygon style="fill:#6A6A93;" points="324.155,180.435 334.222,180.435 334.222,351.193 322.433,351.193    "/>
			<polygon style="fill:#8484AF;" points="314.088,142.97 323.095,145.282 334.222,180.435 324.155,180.435    "/>
			<polygon style="fill:#4A4A66;" points="402.729,285.153 329.917,285.153 317.721,305.204 414.924,305.204    "/>
			<rect x="149.523" y="236.736" style="fill:#6A6A93;" width="27.728" height="114.457"/>
			<rect x="149.523" y="235.23" style="fill:#6A6A93;" width="7.758" height="5.642"/>
			<rect x="169.493" y="235.23" style="fill:#6A6A93;" width="7.758" height="5.642"/>
			<rect x="157.281" y="240.872" style="fill:#8484AF;" width="12.213" height="24.412"/>
			<rect x="157.281" y="269.942" style="fill:#8484AF;" width="12.213" height="24.412"/>
			<rect x="209.441" y="271.188" style="fill:#6A6A93;" width="62.638" height="80.005"/>
			<polygon style="fill:#4A4A66;" points="229.655,287.329 189.227,287.329 149.523,351.193 229.655,351.193    "/>
			<rect x="229.655" y="304.037" style="fill:#4A4A66;" width="20.214" height="47.156"/>
			<polygon style="fill:#6A6A93;" points="267.196,263.865 215.056,263.865 217.783,271.188 264.469,271.188    "/>
			<rect x="100.554" y="308.415" style="fill:#4A4A66;" width="99.609" height="42.778"/>
			<rect x="226.31" y="259.379" style="fill:#6A6A93;" width="11.809" height="11.809"/>
			<g>
				<rect x="226.972" y="314.582" style="fill:#6A6A93;" width="2.684" height="8.077"/>
				<rect x="210.247" y="314.582" style="fill:#6A6A93;" width="2.684" height="8.077"/>
				<rect x="193.523" y="314.582" style="fill:#6A6A93;" width="2.684" height="8.077"/>
				<rect x="176.798" y="314.582" style="fill:#6A6A93;" width="2.684" height="8.077"/>
				<rect x="160.073" y="314.582" style="fill:#6A6A93;" width="2.684" height="8.077"/>
				<rect x="143.348" y="314.582" style="fill:#6A6A93;" width="2.683" height="8.077"/>
				<rect x="126.623" y="314.582" style="fill:#6A6A93;" width="2.684" height="8.077"/>
				<rect x="109.899" y="314.582" style="fill:#6A6A93;" width="2.684" height="8.077"/>
			</g>
			<g>
				<rect x="226.972" y="329.677" style="fill:#6A6A93;" width="2.684" height="8.077"/>
				<rect x="210.247" y="329.677" style="fill:#6A6A93;" width="2.684" height="8.077"/>
				<rect x="193.523" y="329.677" style="fill:#6A6A93;" width="2.684" height="8.077"/>
				<rect x="176.798" y="329.677" style="fill:#6A6A93;" width="2.684" height="8.077"/>
				<rect x="160.073" y="329.677" style="fill:#6A6A93;" width="2.684" height="8.077"/>
				<rect x="143.348" y="329.677" style="fill:#6A6A93;" width="2.683" height="8.077"/>
				<rect x="126.623" y="329.677" style="fill:#6A6A93;" width="2.684" height="8.077"/>
				<rect x="109.899" y="329.677" style="fill:#6A6A93;" width="2.684" height="8.077"/>
			</g>
			<rect x="261.89" y="313.62" style="fill:#4A4A66;" width="31.269" height="37.575"/>
			<rect x="305.243" y="304.037" style="fill:#2F2F3F;" width="122.16" height="47.156"/>
			<polygon style="fill:#2F2F3F;" points="334.04,298.785 309.374,298.785 305.243,304.037 338.172,304.037    "/>
			<polygon style="fill:#2F2F3F;" points="372.34,298.785 347.673,298.785 343.542,304.037 376.471,304.037    "/>
			<polygon style="fill:#2F2F3F;" points="410.639,298.785 385.973,298.785 381.841,304.037 414.77,304.037    "/>
			<rect x="281.736" y="323.889" width="100.105" height="25.015"/>
			<polygon style="fill:#8484AF;" points="354.371,187.435 364.299,169.203 393.563,169.203 402.446,187.435    "/>
			<polygon style="fill:#6A6A93;" points="383.764,169.203 385.906,187.435 402.446,187.435 393.563,169.203    "/>
			<polygon style="fill:#6A6A93;" points="375.198,169.203 370.201,187.435 354.371,187.435 364.299,169.203    "/>
			<polygon style="fill:#8484AF;" points="458.875,169.203 458.875,127.243 454.76,174.262    "/>
			<rect x="444.766" y="282.148" style="fill:#2F2F3F;" width="75.84" height="69.047"/>
			<rect x="398.306" y="313.62" width="29.201" height="36.468"/>
			<rect x="436.295" y="316.672" width="75.577" height="33.417"/>
			<rect x="742.705" y="317.739" width="35.284" height="35.284"/>
			<rect x="787.483" y="328.008" width="57.09" height="25.015"/>
			<rect x="691.149" y="298.785" width="16.99" height="26.242"/>
			<rect x="541.752" y="296.536" width="16.99" height="20.744"/>
			<rect x="478.478" y="309.423" width="15.604" height="15.604"/>
			<rect x="544.629" y="216.828" style="fill:#6A6A93;" width="38.134" height="6.356"/>
			<polygon style="fill:#9999C4;" points="464.077,183.688 464.077,174.262 474.744,166.755 497.034,175.221 497.034,183.688    "/>
			<g style="opacity:0.3;">
				<rect x="576.575" y="247.674" style="opacity:0.6;fill:#6A6A93;" width="1.403" height="77.354"/>
				<rect x="586.622" y="247.674" style="opacity:0.6;fill:#6A6A93;" width="1.403" height="77.354"/>
				<rect x="596.668" y="247.674" style="opacity:0.6;fill:#6A6A93;" width="1.403" height="77.354"/>
				<rect x="606.714" y="247.674" style="opacity:0.6;fill:#6A6A93;" width="1.403" height="77.354"/>
				<rect x="624.359" y="238.85" style="opacity:0.6;fill:#6A6A93;" width="1.403" height="77.354"/>
				<rect x="636.254" y="238.85" style="opacity:0.6;fill:#6A6A93;" width="1.403" height="77.354"/>
				<rect x="648.149" y="238.85" style="opacity:0.6;fill:#6A6A93;" width="1.403" height="77.354"/>
				<rect x="660.043" y="238.85" style="opacity:0.6;fill:#6A6A93;" width="1.403" height="77.354"/>
				<rect x="671.938" y="238.85" style="opacity:0.6;fill:#6A6A93;" width="1.403" height="77.354"/>
			</g>
			<rect x="567.221" y="243.629" style="fill:#6A6A93;" width="48.683" height="4.045"/>
			<rect x="615.904" y="236.827" style="fill:#6A6A93;" width="60.629" height="4.045"/>
			<rect x="529.448" y="305.204" width="53.314" height="43.7"/>
			<rect x="582.763" y="295.128" width="28.122" height="53.776"/>
			<rect x="637.807" y="314.782" width="93.767" height="34.122"/>
			<rect x="624.359" y="308.415" width="37.496" height="41.087"/>
		</g>
		<g>
			<path d="M65.565,331.573c0,0,116.174-3.534,233.973,19.437c0,0-77.443-27.094-233.973-30.039V331.573z"/>
			<path d="M65.565,339.956c0,0,116.174-2.01,233.973,11.054c0,0-77.443-15.408-233.973-17.083V339.956z"/>
			<polygon points="97.776,336.549 95.404,337.25 78.447,330.63    "/>
			<polygon points="65.565,336.549 67.328,337.25 79.931,330.63    "/>
			<polygon points="119.438,336.549 117.066,337.25 100.109,330.63    "/>
			<polygon points="87.227,336.549 88.99,337.25 101.593,330.63    "/>
			<polygon points="141.1,336.549 138.728,337.25 121.771,330.63    "/>
			<polygon points="108.889,336.549 110.651,337.25 123.255,330.63    "/>
			<polygon points="163.646,337.7 161.275,338.402 144.317,331.781    "/>
			<polygon points="131.435,337.701 133.198,338.402 145.801,331.781    "/>
			<polygon points="186.428,339.158 184.056,339.859 167.098,333.238    "/>
			<polygon points="154.216,339.158 155.979,339.859 168.582,333.239    "/>
			<polygon points="204.371,340.426 202.392,341.011 188.249,335.489    "/>
			<polygon points="177.506,340.426 178.976,341.011 189.487,335.49    "/>
			<polygon points="224.268,341.626 222.344,342.04 209.289,335.772    "/>
			<polygon points="198.715,339.696 200.072,340.358 210.466,335.861    "/>
			<polygon points="242.14,344.111 240.463,344.525 229.079,338.257    "/>
			<polygon points="219.859,342.181 221.041,342.843 230.105,338.346    "/>
			<polygon points="157.113,287.908 134.566,295.695 150.579,286.061    "/>
			<polygon points="168.386,292.479 145.84,300.266 161.853,290.632    "/>
			<polygon points="180.623,296.16 158.076,303.947 174.089,294.314    "/>
			<polygon points="190.933,299.08 168.386,306.868 184.399,297.234    "/>
			<polygon points="196.377,303.877 175.892,310.952 190.441,302.199    "/>
			<polygon points="203.32,308.383 184.487,314.888 197.862,306.841    "/>
			<polygon points="208.129,312.07 191.785,317.715 203.393,310.731    "/>
			<polygon points="212.042,315.401 197.663,320.367 207.875,314.223    "/>
			<polygon points="215.617,319.348 203.772,323.439 212.184,318.378    "/>
			<polygon points="219.355,323.064 209.091,326.609 216.381,322.224    "/>
			<polygon points="138.618,286.849 119.785,293.353 133.161,285.306    "/>
			<g>
				<polygon points="65.565,315.378 70.221,324.069 65.565,312.135     "/>
				<path d="M229.654,339.125c-4.596-3.259-9.139-6.309-13.636-9.204l0.003-0.014l-0.046-0.013      c-1.551-0.998-3.096-1.978-4.635-2.934l0.007-0.028l-0.097-0.028c-1.826-1.134-3.643-2.239-5.45-3.315l0.001-0.015l-0.043-0.01      c-2.174-1.294-4.335-2.546-6.483-3.759l0.001-0.015l-0.037-0.005c-4.132-2.332-8.22-4.531-12.251-6.576v-0.004l-0.008-0.001      c-2.584-1.31-5.141-2.55-7.681-3.748v-0.015l-0.034-0.001c-46.888-22.096-86.269-25.351-113.7-23.199v5.982      c1.563-0.18,3.127-0.344,4.692-0.473l4.085,2.988l16.163,30.524l-12.06-30.294l0.039-3.677c3.212-0.101,6.42-0.116,9.619-0.04      l4.844,3.61l16.578,31.403L97.053,295.1l-0.009-3.416c3.417,0.246,6.815,0.588,10.193,1.004l4.367,3.255l16.578,31.403      L115.71,296.18l0.224-2.24c2.713,0.446,5.406,0.939,8.078,1.476l3.514,2.619l16.083,30.466l-12.1-30.236l0.341-1.141      c2.735,0.643,5.441,1.326,8.115,2.046l2.995,2.232l15.239,28.867l-11.464-28.65l0.174-0.489      c1.823,0.542,3.621,1.103,5.407,1.672l2.933,2.186L169.35,331.7l-10.609-26.511l0.109-0.226c1.426,0.491,2.835,0.99,4.233,1.494      l3.089,2.302l12.958,24.547l-9.749-24.362l0.07-0.12c1.417,0.545,2.812,1.096,4.193,1.649l2.756,2.567l11.741,22.241      l-8.833-22.073l-0.001-0.409c0.96,0.405,1.908,0.811,2.848,1.217l2.296,2.307l10.277,19.468l-7.732-19.321l-0.001-0.319      c1.041,0.469,2.068,0.937,3.079,1.404l10.158,19.242l-7.134-17.828c0.879,0.416,1.749,0.831,2.602,1.244l0.934,0.613      l8.709,16.145l-5.716-14.828c0.951,0.474,1.883,0.944,2.796,1.409l1.347,1.253l6.552,12.145l-4.486-11.639      c0.742,0.388,1.464,0.77,2.176,1.149l1.371,1.352l4.839,8.669l-2.997-8.289c0.741,0.405,1.462,0.802,2.164,1.191l1.23,1.151      l3.453,6.186l-2.136-5.908C224.654,335.756,229.654,339.125,229.654,339.125z"/>
			</g>
			<path d="M223.457,328.295l0.014-0.016l-0.034-0.014c-0.741-1.115-1.49-2.209-2.251-3.276l0.027-0.033l-0.072-0.03     c-0.903-1.265-1.818-2.496-2.747-3.695l0.012-0.017l-0.033-0.01c-1.117-1.441-2.252-2.834-3.404-4.181l0.012-0.017l-0.031-0.004     c-2.217-2.591-4.49-5.029-6.824-7.288l0.003-0.005l-0.008,0c-1.496-1.448-3.019-2.815-4.557-4.133l0.011-0.017l-0.031,0     c-53.662-45.961-131.64-14.495-137.979-11.823v7.004c2.573-1.03,5.122-2.014,7.631-2.917l2.084,2.679l-4.895,25.895l8.661-25.821     l4.944-6.319c3.207-0.96,6.354-1.806,9.449-2.56l1.434,2.447l-6.342,31.605l10.098-31.485l2.991-4.345     c3.724-0.719,7.372-1.309,10.923-1.746l1.685,3.355l-7.207,35.017l10.956-34.87l2.766-4.276c3.143-0.211,6.219-0.322,9.218-0.327     l1.949,4.056l-7.463,36.027l11.21-35.871l2.525-3.971c3.082,0.186,6.074,0.485,8.992,0.87l1.757,3.657l-7.463,36.027     l11.209-35.871l1.876-2.611c2.261,0.44,4.468,0.933,6.622,1.48l1.413,2.942l-7.241,34.952l10.875-34.801l1.172-1.337     c2.135,0.668,4.213,1.383,6.234,2.142l1.205,2.508l-6.861,33.118l10.305-32.975l0.53-0.574c1.339,0.577,2.64,1.176,3.924,1.786     l1.18,2.456l-6.349,30.646l9.536-30.514l0.272-0.266c0.998,0.529,1.974,1.068,2.936,1.613l1.243,2.586l-5.835,28.162l8.763-28.04     l0.156-0.141c0.95,0.592,1.873,1.192,2.782,1.795l0.728,2.904l-5.286,25.516l7.939-25.406l0.302-0.475     c0.618,0.443,1.221,0.887,1.818,1.332l0.482,2.615l-4.627,22.335l6.949-22.238l0.235-0.37c0.646,0.515,1.28,1.029,1.899,1.543     l-4.573,22.075l6.412-20.52c0.531,0.458,1.054,0.915,1.563,1.37l0.437,0.686l-3.659,18.516l5.542-17.073     c0.557,0.523,1.099,1.042,1.626,1.556l0.357,1.418l-2.753,13.929l4.35-13.401c0.42,0.43,0.827,0.853,1.226,1.273l0.307,1.531     l-1.809,9.937l3.286-9.549c0.408,0.449,0.802,0.889,1.184,1.322l0.321,1.303l-1.291,7.092l2.342-6.807     c4.659,5.492,6.936,9.263,6.936,9.263C227.681,334.944,225.605,331.53,223.457,328.295z"/>
		</g>
		<g>
			<path d="M65.565,352.623l27.152-1.027l27.152-0.775l54.304-1.531l54.304-1.123c18.102-0.372,36.203-0.56,54.304-0.849     l27.152-0.398l27.152-0.254l54.304-0.481L500,345.827l108.609,0.375l54.304,0.478l27.152,0.261l27.152,0.395     c18.102,0.29,36.203,0.468,54.304,0.85l54.304,1.122l54.304,1.522l27.152,0.771l27.152,1.021v0.8L500,353.822l-434.435-0.399     V352.623z"/>
		</g>
	</g>
</g>
</svg>